<?xml version="1.0" encoding="UTF-8" standalone="no"?>
<svg width="1024px" height="800px" viewBox="0 0 1024 800" version="1.1" xmlns="http://www.w3.org/2000/svg" xmlns:xlink="http://www.w3.org/1999/xlink" xmlns:sketch="http://www.bohemiancoding.com/sketch/ns">
    <!-- Generator: Sketch 3.3.2 (12043) - http://www.bohemiancoding.com/sketch -->
    <title>Desktop</title>
    <desc>Created with Sketch.</desc>
    <defs>
        <radialGradient cx="86.2006902%" cy="85.6103247%" fx="86.2006902%" fy="85.6103247%" r="121.489451%" id="radialGradient-1">
            <stop stop-color="#FF9600" stop-opacity="0.40845788" offset="0%"></stop>
            <stop stop-color="#FF8E07" offset="17.4841991%"></stop>
            <stop stop-color="#FF5E3A" offset="100%"></stop>
        </radialGradient>
    </defs>
    <g id="Page-1" stroke="none" stroke-width="1" fill="none" fill-rule="evenodd" sketch:type="MSPage">
        <g id="Desktop" sketch:type="MSArtboardGroup">
            <rect id="Rectangle-1" fill="url(#radialGradient-1)" sketch:type="MSShapeGroup" x="0" y="0" width="1024" height="800"></rect>
            <ellipse id="Oval-1" fill="#FAF7E8" sketch:type="MSShapeGroup" transform="translate(897.932507, 692.935750) rotate(-9.000000) translate(-897.932507, -692.935750) " cx="897.932507" cy="692.93575" rx="120" ry="85"></ellipse>
            <path d="M-2,659.119238 C-2,659.119238 194,620.074985 274,695.374616 C354,770.674247 379,779.040873 379,779.040873 L875,682.359865 C875,682.359865 920,684.219112 953,702.811616 C986,721.404121 975,806 975,806 L-5,800.42225 L-2,659.119238 Z" id="Path-3" fill="#C3732A" sketch:type="MSShapeGroup"></path>
            <path d="M4,720.60119 L111,679.113095 L367,746.22619 L563,649.827381 L803,732.803571 L1027,612 L1024,817 L-12,810.89881 L-12,715.720238 L4,720.60119 Z" id="Path-1" fill="#853F1D" sketch:type="MSShapeGroup"></path>
            <path d="M193.863636,709.119666 L193.863636,695.466268 C193.863636,695.466268 200,696.846939 200,691.051484 C200,685.25603 199.659091,682.869666 199.659091,682.869666 C199.659091,682.869666 198.295455,681.165121 196.931818,682.528757 C195.568182,683.892393 197.613636,686.278757 197.613636,686.278757 C197.613636,686.278757 198.284208,690.602967 197.272727,692.074211 C196.261247,693.545455 193.863636,693.096939 193.863636,691.733302 L193.863636,685.247065 C193.863636,685.247065 193.863636,682.528757 192.5,682.528757 C191.136364,682.528757 190.795455,684.233303 190.795455,684.915121 L190.795455,692.415121 C190.795455,692.415121 187.727273,693.096939 187.727273,690.710575 C187.727273,688.324212 186.363636,688.324211 186.363636,688.324211 C186.363636,688.324211 185,688.324211 185,690.710575 C185,691.862881 185.730079,693.48267 187.045455,694.119666 C188.454151,694.801855 190.454545,694.460575 190.454545,694.460575 L190.454545,709.119666 L193.863636,709.119666 Z" id="Path-4" fill="#853F1D" sketch:type="MSShapeGroup"></path>
            <path d="M-17,720 L34,686 L170,760 L363,720 L622,787 L752,770 L1026,784 L1026,799 L-13,800 L-17,720 Z" id="Path-2" fill="#343434" sketch:type="MSShapeGroup"></path>
            <path d="M382,741 L382,700.950031 C382,700.950031 400,705 400,688 C400,671 399,664 399,664 C399,664 395,659 391,663 C387,667 393,674 393,674 C393,674 394.967009,686.68435 392,690.999999 C389.032991,695.315649 382,693.999999 382,690 L382,670.973702 C382,670.973702 382,663 378,663 C374,663 373,668 373,670 L373,692 C373,692 364,693.999999 364,687 C364,680.000001 360,680 360,680 C360,680 356,679.999999 356,687 C356,690.380098 358.141565,695.131478 362,697.000001 C366.132176,699.001087 372,698 372,698 L372,741 L382,741 Z" id="Path-4" fill="#343434" sketch:type="MSShapeGroup"></path>
            <path d="M753.545455,782.77551 L753.545455,717.239198 C753.545455,717.239198 783,723.866419 783,696.048237 C783,668.230056 781.363636,656.77551 781.363636,656.77551 C781.363636,656.77551 774.818182,648.593692 768.272727,655.139147 C761.727273,661.684601 771.545455,673.139146 771.545455,673.139146 C771.545455,673.139146 774.764196,693.895356 769.909091,700.957327 C765.053986,708.019299 753.545455,705.866418 753.545455,699.320965 L753.545455,668.187023 C753.545455,668.187023 753.545455,655.139147 747,655.139147 C740.454545,655.139146 738.818182,663.320965 738.818182,666.593692 L738.818182,702.593692 C738.818182,702.593692 724.090909,705.866418 724.090909,694.411874 C724.090909,682.957329 717.545455,682.957328 717.545455,682.957328 C717.545455,682.957328 711,682.957327 711,694.411874 C711,699.942943 714.504379,707.717929 720.818182,710.775511 C727.579924,714.050016 737.181818,712.411874 737.181818,712.411874 L737.181818,782.77551 L753.545455,782.77551 Z" id="Path-4" fill="#343434" sketch:type="MSShapeGroup"></path>
            <path d="M822.863636,731.248145 L822.863636,717.594746 C822.863636,717.594746 829,718.975417 829,713.179963 C829,707.384508 828.659091,704.998145 828.659091,704.998145 C828.659091,704.998145 827.295455,703.293599 825.931818,704.657236 C824.568182,706.020872 826.613636,708.407235 826.613636,708.407235 C826.613636,708.407235 827.284208,712.731446 826.272727,714.20269 C825.261247,715.673934 822.863636,715.225417 822.863636,713.861781 L822.863636,707.375543 C822.863636,707.375543 822.863636,704.657236 821.5,704.657236 C820.136364,704.657236 819.795455,706.361781 819.795455,707.043599 L819.795455,714.543599 C819.795455,714.543599 816.727273,715.225417 816.727273,712.839054 C816.727273,710.45269 815.363636,710.45269 815.363636,710.45269 C815.363636,710.45269 814,710.45269 814,712.839054 C814,713.99136 814.730079,715.611149 816.045455,716.248145 C817.454151,716.930334 819.454545,716.589054 819.454545,716.589054 L819.454545,731.248145 L822.863636,731.248145 Z" id="Path-4" fill="#853F1D" sketch:type="MSShapeGroup" transform="translate(821.500000, 717.688312) scale(-1, 1) translate(-821.500000, -717.688312) "></path>
            <path d="M428.863636,722.679499 L428.863636,709.026101 C428.863636,709.026101 435,710.406772 435,704.611317 C435,698.815863 434.659091,696.429499 434.659091,696.429499 C434.659091,696.429499 433.295455,694.724954 431.931818,696.08859 C430.568182,697.452226 432.613636,699.83859 432.613636,699.83859 C432.613636,699.83859 433.284208,704.1628 432.272727,705.634044 C431.261247,707.105288 428.863636,706.656772 428.863636,705.293135 L428.863636,698.806898 C428.863636,698.806898 428.863636,696.08859 427.5,696.08859 C426.136364,696.08859 425.795455,697.793136 425.795455,698.474954 L425.795455,705.974954 C425.795455,705.974954 422.727273,706.656772 422.727273,704.270408 C422.727273,701.884045 421.363636,701.884045 421.363636,701.884045 C421.363636,701.884045 420,701.884044 420,704.270408 C420,705.422714 420.730079,707.042503 422.045455,707.679499 C423.454151,708.361688 425.454545,708.020408 425.454545,708.020408 L425.454545,722.679499 L428.863636,722.679499 Z" id="Path-4" fill="#853F1D" sketch:type="MSShapeGroup" transform="translate(427.500000, 709.119666) scale(-1, 1) translate(-427.500000, -709.119666) "></path>
            <path d="M877.608634,684 L877.608634,678.679214 C877.608634,678.679214 880,679.217268 880,676.958755 C880,674.700243 879.867146,673.770267 879.867146,673.770267 C879.867146,673.770267 879.335732,673.105998 878.804317,673.637413 C878.272902,674.168828 879.070024,675.098804 879.070024,675.098804 C879.070024,675.098804 879.331349,676.783966 878.937171,677.357316 C878.542993,677.930666 877.608634,677.755877 877.608634,677.224462 L877.608634,674.696749 C877.608634,674.696749 877.608634,673.637413 877.077219,673.637413 C876.545804,673.637413 876.412951,674.301682 876.412951,674.567389 L876.412951,677.49017 C876.412951,677.49017 875.217268,677.755877 875.217268,676.825901 C875.217268,675.895926 874.685853,675.895926 874.685853,675.895926 C874.685853,675.895926 874.154438,675.895926 874.154438,676.825901 C874.154438,677.27496 874.438953,677.906198 874.95156,678.154438 C875.500535,678.42029 876.280097,678.287292 876.280097,678.287292 L876.280097,684 L877.608634,684 Z" id="Path-4" fill="#C3732A" sketch:type="MSShapeGroup"></path>
            <path d="M219.608634,666.733302 L219.608634,661.412517 C219.608634,661.412517 222,661.95057 222,659.692058 C222,657.433545 221.867146,656.503569 221.867146,656.503569 C221.867146,656.503569 221.335732,655.839301 220.804317,656.370716 C220.272902,656.90213 221.070024,657.832106 221.070024,657.832106 C221.070024,657.832106 221.331349,659.517269 220.937171,660.090618 C220.542993,660.663968 219.608634,660.48918 219.608634,659.957765 L219.608634,657.430051 C219.608634,657.430051 219.608634,656.370716 219.077219,656.370716 C218.545804,656.370716 218.412951,657.034984 218.412951,657.300691 L218.412951,660.223472 C218.412951,660.223472 217.217268,660.48918 217.217268,659.559204 C217.217268,658.629228 216.685853,658.629228 216.685853,658.629228 C216.685853,658.629228 216.154438,658.629228 216.154438,659.559204 C216.154438,660.008262 216.438953,660.639501 216.95156,660.887741 C217.500535,661.153592 218.280097,661.020594 218.280097,661.020594 L218.280097,666.733302 L219.608634,666.733302 Z" id="Path-4" fill="#C3732A" sketch:type="MSShapeGroup"></path>
            <path d="M9.60863379,657.601113 L9.60863379,652.280328 C9.60863379,652.280328 12,652.818381 12,650.559868 C12,648.301356 11.8671463,647.37138 11.8671463,647.37138 C11.8671463,647.37138 11.3357316,646.707112 10.8043169,647.238526 C10.2729022,647.769941 11.0700243,648.699917 11.0700243,648.699917 C11.0700243,648.699917 11.3313486,650.385079 10.9371706,650.958429 C10.5429925,651.531779 9.60863379,651.35699 9.60863379,650.825576 L9.60863379,648.297862 C9.60863379,648.297862 9.60863379,647.238526 9.07721908,647.238526 C8.54580436,647.238526 8.41295069,647.902795 8.41295069,648.168502 L8.41295069,651.091283 C8.41295069,651.091283 7.21726758,651.35699 7.21726758,650.427015 C7.21726758,649.497039 6.68585287,649.497039 6.68585287,649.497039 C6.68585287,649.497039 6.15443815,649.497039 6.15443815,650.427015 C6.15443815,650.876073 6.43895292,651.507311 6.95156022,651.755551 C7.50053501,652.021403 8.28009701,651.888405 8.28009701,651.888405 L8.28009701,657.601113 L9.60863379,657.601113 Z" id="Path-4" fill="#C3732A" sketch:type="MSShapeGroup"></path>
            <path d="M95.6806054,734.27551 L95.6806054,702.419449 C95.6806054,702.419449 109.997948,705.640826 109.997948,692.118891 C109.997948,678.596957 109.20254,673.029102 109.20254,673.029102 C109.20254,673.029102 106.020908,669.052062 102.839277,672.233694 C99.657645,675.415326 104.430092,680.98318 104.430092,680.98318 C104.430092,680.98318 105.994667,691.072413 103.634684,694.505115 C101.274702,697.937816 95.6806054,696.891338 95.6806054,693.709707 L95.6806054,678.57604 C95.6806054,678.57604 95.6806054,672.233694 92.4989738,672.233694 C89.3173422,672.233694 88.5219343,676.210734 88.5219343,677.801549 L88.5219343,695.300523 C88.5219343,695.300523 81.3632632,696.891338 81.3632632,691.323483 C81.3632632,685.755629 78.1816316,685.755628 78.1816316,685.755628 C78.1816316,685.755628 75,685.755628 75,691.323483 C75,694.01204 76.7034176,697.791326 79.7724474,699.277563 C83.0592129,700.869243 87.7265264,700.07297 87.7265264,700.07297 L87.7265264,734.27551 L95.6806054,734.27551 Z" id="Path-4" fill="#343434" sketch:type="MSShapeGroup" transform="translate(92.498974, 702.637755) scale(-1, 1) translate(-92.498974, -702.637755) "></path>
            <g id="Group" sketch:type="MSLayerGroup" transform="translate(622.969172, 776.238529) rotate(13.000000) translate(-622.969172, -776.238529) translate(603.969172, 756.238529)" fill="#343434">
                <path d="M21.9121296,38 C21.9121296,38 21.9121296,34.4931698 9.94555395,27.4795094 C-2.02102166,20.465849 0.154719361,21.8685811 0.154719361,21.8685811 C0.154719361,21.8685811 10.8787051,23.2713131 15.3075464,26.7781433 C19.7363877,30.2849735 22.9999992,37.9999999 22.9999992,37.9999999" id="Path-13" sketch:type="MSShapeGroup"></path>
                <path d="M20.4165526,34.9043648 C20.4165526,34.9043648 20.4165526,29.4715751 10.1688313,18.6059957 C-0.0788899906,7.74041641 1.78433207,9.91353228 1.78433207,9.91353228 C1.78433207,9.91353228 10.9679466,12.0866481 14.7606382,17.5194377 C18.5533299,22.9522274 21.348163,34.9043647 21.348163,34.9043647" id="Path-13" sketch:type="MSShapeGroup" transform="translate(11.500000, 22.320250) rotate(1.000000) translate(-11.500000, -22.320250) "></path>
                <path d="M31.7249678,33.9018826 C31.7249678,33.9018826 31.7249678,28.9018826 20.7249678,18.9018826 C9.72496778,8.90188256 11.7249678,10.9018826 11.7249678,10.9018826 C11.7249678,10.9018826 21.5827456,12.9018825 25.6538563,17.9018825 C29.724967,22.9018825 32.724967,33.9018825 32.724967,33.9018825" id="Path-13" sketch:type="MSShapeGroup" transform="translate(22.153856, 22.320250) scale(-1, 1) rotate(43.000000) translate(-22.153856, -22.320250) "></path>
                <path d="M30.2340967,38.5648868 C30.2340967,38.5648868 26.0113998,34.0365988 27.5282397,15.6900893 C29.0450796,-2.65642017 28.9228431,0.843973845 28.9228431,0.843973845 C28.9228431,0.843973845 21.6841503,10.9805706 22.2198148,18.9470721 C22.7554793,26.9135736 29.3284397,39.4094255 29.3284397,39.4094255" id="Path-13" sketch:type="MSShapeGroup" transform="translate(26.212792, 19.993189) rotate(24.000000) translate(-26.212792, -19.993189) "></path>
            </g>
            <g id="Group" sketch:type="MSLayerGroup" transform="translate(370.830625, 717.519400) rotate(-21.000000) translate(-370.830625, -717.519400) translate(351.830625, 697.519400)" fill="#343434">
                <path d="M21.9121296,38 C21.9121296,38 21.9121296,34.4931698 9.94555395,27.4795094 C-2.02102166,20.465849 0.154719361,21.8685811 0.154719361,21.8685811 C0.154719361,21.8685811 10.8787051,23.2713131 15.3075464,26.7781433 C19.7363877,30.2849735 22.9999992,37.9999999 22.9999992,37.9999999" id="Path-13" sketch:type="MSShapeGroup"></path>
                <path d="M20.4165526,34.9043648 C20.4165526,34.9043648 20.4165526,29.4715751 10.1688313,18.6059957 C-0.0788899906,7.74041641 1.78433207,9.91353228 1.78433207,9.91353228 C1.78433207,9.91353228 10.9679466,12.0866481 14.7606382,17.5194377 C18.5533299,22.9522274 21.348163,34.9043647 21.348163,34.9043647" id="Path-13" sketch:type="MSShapeGroup" transform="translate(11.500000, 22.320250) rotate(1.000000) translate(-11.500000, -22.320250) "></path>
                <path d="M31.7249678,33.9018826 C31.7249678,33.9018826 31.7249678,28.9018826 20.7249678,18.9018826 C9.72496778,8.90188256 11.7249678,10.9018826 11.7249678,10.9018826 C11.7249678,10.9018826 21.5827456,12.9018825 25.6538563,17.9018825 C29.724967,22.9018825 32.724967,33.9018825 32.724967,33.9018825" id="Path-13" sketch:type="MSShapeGroup" transform="translate(22.153856, 22.320250) scale(-1, 1) rotate(43.000000) translate(-22.153856, -22.320250) "></path>
                <path d="M30.2340967,38.5648868 C30.2340967,38.5648868 26.0113998,34.0365988 27.5282397,15.6900893 C29.0450796,-2.65642017 28.9228431,0.843973845 28.9228431,0.843973845 C28.9228431,0.843973845 21.6841503,10.9805706 22.2198148,18.9470721 C22.7554793,26.9135736 29.3284397,39.4094255 29.3284397,39.4094255" id="Path-13" sketch:type="MSShapeGroup" transform="translate(26.212792, 19.993189) rotate(24.000000) translate(-26.212792, -19.993189) "></path>
            </g>
            <g id="Group" sketch:type="MSLayerGroup" transform="translate(174.472250, 751.051859) rotate(24.000000) translate(-174.472250, -751.051859) translate(155.472250, 731.051859)" fill="#343434">
                <path d="M21.9121296,38 C21.9121296,38 21.9121296,34.4931698 9.94555395,27.4795094 C-2.02102166,20.465849 0.154719361,21.8685811 0.154719361,21.8685811 C0.154719361,21.8685811 10.8787051,23.2713131 15.3075464,26.7781433 C19.7363877,30.2849735 22.9999992,37.9999999 22.9999992,37.9999999" id="Path-13" sketch:type="MSShapeGroup"></path>
                <path d="M20.4165526,34.9043648 C20.4165526,34.9043648 20.4165526,29.4715751 10.1688313,18.6059957 C-0.0788899906,7.74041641 1.78433207,9.91353228 1.78433207,9.91353228 C1.78433207,9.91353228 10.9679466,12.0866481 14.7606382,17.5194377 C18.5533299,22.9522274 21.348163,34.9043647 21.348163,34.9043647" id="Path-13" sketch:type="MSShapeGroup" transform="translate(11.500000, 22.320250) rotate(1.000000) translate(-11.500000, -22.320250) "></path>
                <path d="M31.7249678,33.9018826 C31.7249678,33.9018826 31.7249678,28.9018826 20.7249678,18.9018826 C9.72496778,8.90188256 11.7249678,10.9018826 11.7249678,10.9018826 C11.7249678,10.9018826 21.5827456,12.9018825 25.6538563,17.9018825 C29.724967,22.9018825 32.724967,33.9018825 32.724967,33.9018825" id="Path-13" sketch:type="MSShapeGroup" transform="translate(22.153856, 22.320250) scale(-1, 1) rotate(43.000000) translate(-22.153856, -22.320250) "></path>
                <path d="M30.2340967,38.5648868 C30.2340967,38.5648868 26.0113998,34.0365988 27.5282397,15.6900893 C29.0450796,-2.65642017 28.9228431,0.843973845 28.9228431,0.843973845 C28.9228431,0.843973845 21.6841503,10.9805706 22.2198148,18.9470721 C22.7554793,26.9135736 29.3284397,39.4094255 29.3284397,39.4094255" id="Path-13" sketch:type="MSShapeGroup" transform="translate(26.212792, 19.993189) rotate(24.000000) translate(-26.212792, -19.993189) "></path>
            </g>
        </g>
    </g>
</svg>