<?xml version="1.0" encoding="UTF-8" standalone="no"?>
<svg width="83px" height="60px" viewBox="0 0 83 60" version="1.1" xmlns="http://www.w3.org/2000/svg" xmlns:xlink="http://www.w3.org/1999/xlink" xmlns:sketch="http://www.bohemiancoding.com/sketch/ns">
    <!-- Generator: bin/sketchtool 1.4 (305) - http://www.bohemiancoding.com/sketch -->
    <title>Imported Layers Copy 3</title>
    <desc>Created with bin/sketchtool.</desc>
    <defs></defs>
    <g id="Home" stroke="none" stroke-width="1" fill="none" fill-rule="evenodd" sketch:type="MSPage">
        <g id="01---Home---Desktop-(-&gt;1170px)-copy" sketch:type="MSArtboardGroup" transform="translate(-660.000000, -1092.000000)">
            <g id="01---Section-Copy-2" sketch:type="MSLayerGroup" transform="translate(331.000000, 1092.000000)">
                <g id="Imported-Layers-Copy-3" transform="translate(329.000000, 0.000000)" sketch:type="MSShapeGroup">
                    <path d="M41.070373,41.8360684 C40.9269939,41.8818803 40.7776619,41.9288889 40.6205061,41.977265 C39.4051004,45.3294017 37.2726127,48.0135043 34.6868566,50.1588034 C36.051084,55.8047863 41.3544098,59.9111111 41.3544098,59.9111111 C45.5729529,56.8082051 47.6323053,53.6844444 48.3753934,50.7637607 C45.5506721,48.5646154 43.2703832,45.7558974 42.1388279,42.1711111 C41.7285902,42.0488889 41.3707377,41.9353846 41.070373,41.8360684" id="Fill-1" fill="#B6E866"></path>
                    <path d="M48.5748996,46.3357265 C48.7931148,47.7324786 48.7679426,49.2201709 48.3753934,50.7637607 C57.5154283,57.8798291 72.348957,58.614359 72.348957,58.614359 C72.1406066,55.7449573 71.3481947,53.2521368 70.1455451,51.0894017 C68.9527602,51.1912821 67.7065697,51.2507692 66.4244918,51.2507692 C60.7638238,51.2507692 54.379457,50.0931624 48.5748996,46.3357265" id="Fill-2" fill="#B6E866"></path>
                    <path d="M42.1388279,42.1711111 C43.2703832,45.7558974 45.5506721,48.5646154 48.3753934,50.7637607 C48.7679426,49.2201709 48.7931148,47.7324786 48.5748996,46.3357265 C47.002832,45.3182906 45.475666,44.1117949 44.0144918,42.6842735 C43.3059303,42.5066667 42.6774775,42.3316239 42.1388279,42.1711111" id="Fill-3" fill="#99DE29"></path>
                    <path d="M34.4798668,46.0717949 C28.2475533,50.0558974 21.5184303,51.2507692 15.693123,51.2507692 C14.5530635,51.2507692 13.4487213,51.2051282 12.3882602,51.125641 C11.3124918,53.2794872 10.6828484,55.7601709 10.6780861,58.614359 C10.6780861,58.614359 25.5293033,57.7565812 34.6868566,50.1588034 C34.3747561,48.8668376 34.268625,47.494359 34.4798668,46.0717949" id="Fill-4" fill="#B6E866"></path>
                    <path d="M40.6205061,41.977265 C40.1937705,42.1087179 39.7155,42.2488889 39.1928381,42.3916239 C37.6704344,43.8242735 36.0927541,45.0406838 34.4798668,46.0717949 C34.268625,47.494359 34.3747561,48.8668376 34.6868566,50.1588034 C37.2726127,48.0135043 39.4051004,45.3294017 40.6205061,41.977265" id="Fill-5" fill="#99DE29"></path>
                    <path d="M41.9932377,0.142564103 C41.9932377,0.142564103 32.3322418,9.16940171 31.8095799,21.0907692 C35.932877,24.1876923 39.5501803,28.5292308 41.3292377,34.6051282 C42.9161025,28.1512821 46.7665881,23.6562393 51.2065779,20.5328205 C51.3366906,14.3145299 49.0871865,7.26188034 41.9932377,0.142564103" id="Fill-6" fill="#F98EC4"></path>
                    <path d="M71.5414078,13.5041026 C71.5414078,13.5041026 60.1715984,14.2263248 51.2065779,20.5328205 C51.102998,25.494359 49.4843279,29.925812 47.6039016,33.4324786 C53.7283832,28.9986325 60.6226557,27.6711111 66.6887992,27.6711111 L66.7945902,27.6711111 C69.3934426,24.0109402 71.2090676,19.3733333 71.5414078,13.5041026" id="Fill-7" fill="#F98EC4"></path>
                    <path d="M51.2065779,20.5328205 C46.7665881,23.6562393 42.9161025,28.1512821 41.3292377,34.6051282 C41.483502,35.1321368 41.6234795,35.6692308 41.7491701,36.222735 C41.8811537,36.1316239 42.0136475,36.0413675 42.1497131,35.9504274 C42.1497131,35.9504274 42.388168,36.1396581 42.774084,36.4940171 C43.2810984,36.3548718 43.8438996,36.2102564 44.4553443,36.0668376 C45.4746455,35.0871795 46.5284734,34.2111111 47.6039016,33.4324786 C49.4843279,29.925812 51.102998,25.494359 51.2065779,20.5328205" id="Fill-8" fill="#F761AC"></path>
                    <path d="M42.1497131,35.9504274 C42.0136475,36.0413675 41.8811537,36.1316239 41.7491701,36.222735 C41.7889693,36.3976068 41.827748,36.5764103 41.8644857,36.7540171 C42.1437602,36.6707692 42.4475266,36.5834188 42.774084,36.4940171 C42.388168,36.1396581 42.1497131,35.9504274 42.1497131,35.9504274" id="Fill-9" fill="#EB5E93"></path>
                    <path d="M11.4585922,13.5041026 C11.4660758,19.3760684 13.0789631,24.0126496 15.5648811,27.6712821 C21.5107766,27.6900855 28.3805574,28.9601709 34.6996127,33.165641 C32.4046967,28.9794872 31.6430697,24.8876923 31.8095799,21.0907692 C22.8319734,14.3478632 11.4585922,13.5041026 11.4585922,13.5041026" id="Fill-10" fill="#F98EC4"></path>
                    <path d="M31.8095799,21.0907692 C31.6430697,24.8876923 32.4046967,28.9794872 34.6996127,33.165641 C36.0706434,34.0781197 37.414291,35.1278632 38.7184795,36.334188 C39.4952439,36.5333333 40.190709,36.7319658 40.7895676,36.9148718 C40.8212029,36.8911111 40.852668,36.8675214 40.8844734,36.8437607 C41.0030205,36.0721368 41.1518422,35.3268376 41.3292377,34.6051282 C39.5501803,28.5292308 35.932877,24.1876923 31.8095799,21.0907692" id="Fill-11" fill="#F761AC"></path>
                    <path id="Fill-12" fill="#EB5E93" d="M40.8844734,36.8437607 C40.852668,36.8675214 40.8212029,36.8911111 40.7895676,36.9148718 C40.8169508,36.9232479 40.8429734,36.9311111 40.8698463,36.9394872 C40.8747787,36.9071795 40.879541,36.8760684 40.8844734,36.8437607"></path>
                    <path d="M41.3292377,34.6051282 C41.1518422,35.3268376 41.0030205,36.0721368 40.8844734,36.8437607 C41.1613668,36.637094 41.4510164,36.4288889 41.7491701,36.222735 C41.6234795,35.6692308 41.483502,35.1321368 41.3292377,34.6051282" id="Fill-13" fill="#F64FA2"></path>
                    <path d="M41.7491701,36.222735 C41.4510164,36.4288889 41.1613668,36.637094 40.8844734,36.8437607 C40.879541,36.8760684 40.8747787,36.9071795 40.8698463,36.9394872 C40.9370287,36.9601709 41.0030205,36.9805128 41.0674816,37.0008547 C41.3050861,36.9242735 41.5714344,36.8413675 41.8644857,36.7540171 C41.827748,36.5764103 41.7889693,36.3976068 41.7491701,36.222735" id="Fill-14" fill="#F04D98"></path>
                    <path d="M66.7945902,27.6711111 C64.6078463,30.7509402 61.8666352,33.1388034 58.986127,34.9894017 C63.5754488,35.4287179 68.4972807,36.7239316 73.1752152,39.5396581 C76.6513504,37.4935043 79.9977131,34.6186325 82.9782295,30.6434188 C82.9782295,30.6434188 75.8182889,27.6938462 66.7945902,27.6711111" id="Fill-15" fill="#F98EC4"></path>
                    <path d="M41.9542889,41.5418803 C41.8430553,41.5805128 41.7226373,41.6215385 41.595416,41.6641026 C41.5899734,41.6694017 41.5874221,41.6719658 41.5874221,41.6719658 C41.5860615,41.6705983 41.5847008,41.6694017 41.5833402,41.6682051 C41.4243135,41.7213675 41.2528709,41.7776068 41.070373,41.8360684 C41.3707377,41.9353846 41.7285902,42.0488889 42.1388279,42.1711111 C42.0731762,41.9634188 42.0119467,41.7547009 41.9542889,41.5418803" id="Fill-16" fill="#DC8586"></path>
                    <path d="M42.6686332,41.2844444 C42.4910676,41.3511111 42.2514221,41.4388034 41.9542889,41.5418803 C42.0119467,41.7547009 42.0731762,41.9634188 42.1388279,42.1711111 C42.6774775,42.3316239 43.3059303,42.5066667 44.0144918,42.6842735 C43.5591824,42.2396581 43.1098258,41.7726496 42.6686332,41.2844444" id="Fill-17" fill="#CF816E"></path>
                    <path id="Fill-18" fill="#EB5E93" d="M41.595416,41.6641026 C41.591334,41.665641 41.5874221,41.6668376 41.5833402,41.6682051 C41.5847008,41.6694017 41.5860615,41.6705983 41.5874221,41.6719658 C41.5874221,41.6719658 41.5899734,41.6694017 41.595416,41.6641026"></path>
                    <path d="M66.6887992,27.6711111 C60.6226557,27.6711111 53.7283832,28.9986325 47.6039016,33.4324786 C47.1768258,34.2288889 46.7369939,34.9762393 46.297502,35.6728205 C48.7706639,35.1936752 51.7935307,34.8071795 55.1082582,34.8071795 C56.3634631,34.8071795 57.6613586,34.8625641 58.986127,34.9894017 C61.8666352,33.1388034 64.6078463,30.7509402 66.7945902,27.6711111 L66.6887992,27.6711111" id="Fill-19" fill="#F761AC"></path>
                    <path d="M47.6039016,33.4324786 C46.5284734,34.2111111 45.4746455,35.0871795 44.4553443,36.0668376 C45.0280102,35.9326496 45.6433668,35.7994872 46.297502,35.6728205 C46.7369939,34.9762393 47.1768258,34.2288889 47.6039016,33.4324786" id="Fill-20" fill="#F64FA2"></path>
                    <path d="M15.4293258,27.6711111 C6.71653689,27.6711111 0.0217704918,30.3418803 0.0217704918,30.3418803 C2.80465164,34.4712821 6.03093648,37.4430769 9.43988934,39.5432479 C13.9135553,36.7198291 18.7151393,35.4181197 23.2571783,34.982906 C20.3649344,33.1348718 17.6565492,30.7497436 15.5648811,27.6712821 C15.5201496,27.6711111 15.4740574,27.6711111 15.4293258,27.6711111" id="Fill-21" fill="#F98EC4"></path>
                    <path id="Fill-22" fill="#DC8586" d="M40.7130307,41.7157265 C40.6827561,41.8034188 40.6519713,41.8904274 40.6205061,41.977265 C40.7776619,41.9288889 40.9269939,41.8818803 41.070373,41.8360684 C40.9406004,41.7933333 40.8208627,41.7528205 40.7130307,41.7157265"></path>
                    <path d="M40.1066885,41.4984615 C39.8049631,41.8047863 39.4994959,42.1030769 39.1928381,42.3916239 C39.7155,42.2488889 40.1937705,42.1087179 40.6205061,41.977265 C40.6519713,41.8904274 40.6827561,41.8034188 40.7130307,41.7157265 C40.4352869,41.6201709 40.2310184,41.5452991 40.1066885,41.4984615" id="Fill-23" fill="#CF816E"></path>
                    <path d="M15.5648811,27.6712821 C17.6565492,30.7497436 20.3649344,33.1348718 23.2571783,34.982906 C24.5324529,34.8608547 25.7888484,34.8068376 27.0100369,34.8068376 C30.4922951,34.8068376 33.7012316,35.2447863 36.3335902,35.7842735 C35.7182336,34.9073504 35.1766926,34.0360684 34.6996127,33.165641 C28.3805574,28.9601709 21.5107766,27.6900855 15.5648811,27.6712821" id="Fill-24" fill="#F761AC"></path>
                    <path d="M34.6996127,33.165641 C35.1766926,34.0360684 35.7182336,34.9073504 36.3335902,35.7842735 C37.1940348,35.9606838 37.9918893,36.1476923 38.7184795,36.334188 C37.414291,35.1278632 36.0706434,34.0781197 34.6996127,33.165641" id="Fill-25" fill="#F64FA2"></path>
                    <path id="Fill-26" fill="#EB5E93" d="M41.9041148,41.3524786 C41.732502,41.5304274 41.6246701,41.6357265 41.595416,41.6641026 C41.7226373,41.6215385 41.8430553,41.5805128 41.9542889,41.5418803 C41.9372807,41.4789744 41.9206127,41.4158974 41.9041148,41.3524786"></path>
                    <path d="M42.4303484,41.0179487 C42.4351107,41.0923077 42.4395328,41.1670085 42.4437848,41.2418803 C42.4437848,41.2418803 42.3036373,41.2329915 42.0417111,41.208547 C41.9923873,41.2608547 41.9462951,41.3088889 41.9041148,41.3524786 C41.9206127,41.4158974 41.9372807,41.4789744 41.9542889,41.5418803 C42.2514221,41.4388034 42.4910676,41.3511111 42.6686332,41.2844444 C42.5890348,41.1964103 42.5094365,41.1073504 42.4303484,41.0179487" id="Fill-27" fill="#E65C89"></path>
                    <path d="M41.0695225,41.1917949 C40.9987684,41.1996581 40.9348176,41.2063248 40.8780102,41.2121368 C40.8252848,41.3815385 40.7703484,41.5494017 40.7130307,41.7157265 C40.8208627,41.7528205 40.9406004,41.7933333 41.070373,41.8360684 C41.2528709,41.7776068 41.4243135,41.7213675 41.5833402,41.6682051 C41.4091762,41.5094017 41.2380738,41.3505983 41.0695225,41.1917949" id="Fill-28" fill="#EB5E93"></path>
                    <path d="M40.5557049,41.034359 C40.406543,41.191453 40.257041,41.3459829 40.1066885,41.4984615 C40.2310184,41.5452991 40.4352869,41.6201709 40.7130307,41.7157265 C40.7703484,41.5494017 40.8252848,41.3815385 40.8780102,41.2121368 C40.6677889,41.2336752 40.5562152,41.2418803 40.5562152,41.2418803 C40.5562152,41.1726496 40.5565553,41.1035897 40.5570656,41.0347009 C40.5567254,41.0345299 40.5562152,41.0345299 40.5557049,41.034359" id="Fill-29" fill="#E65C89"></path>
                    <path d="M41.4505061,41.1470085 C41.307127,41.1647863 41.1800758,41.1794872 41.0695225,41.1917949 C41.2380738,41.3505983 41.4091762,41.5094017 41.5833402,41.6682051 C41.5874221,41.6668376 41.591334,41.665641 41.595416,41.6641026 C41.6246701,41.6357265 41.732502,41.5304274 41.9041148,41.3524786 C41.890168,41.2986325 41.8767316,41.2454701 41.8634652,41.1912821 C41.742877,41.1791453 41.6051107,41.1644444 41.4505061,41.1470085" id="Fill-30" fill="#F04D98"></path>
                    <path id="Fill-31" fill="#EE4C94" d="M41.8634652,41.1912821 C41.8767316,41.2454701 41.890168,41.2986325 41.9041148,41.3524786 C41.9462951,41.3088889 41.9923873,41.2608547 42.0417111,41.208547 C41.9874549,41.2034188 41.9280963,41.1976068 41.8634652,41.1912821"></path>
                    <path id="Fill-32" fill="#F04D98" d="M40.9179795,41.0823932 C40.9047131,41.125812 40.8914467,41.1688889 40.8780102,41.2121368 C40.9348176,41.2063248 40.9987684,41.1996581 41.0695225,41.1917949 C41.0326148,41.1569231 40.9963873,41.1225641 40.9596496,41.0878632 C40.945873,41.0859829 40.9319262,41.0842735 40.9179795,41.0823932"></path>
                    <path id="Fill-33" fill="#EE4C94" d="M40.5570656,41.0347009 C40.5565553,41.1035897 40.5562152,41.1726496 40.5562152,41.2418803 C40.5562152,41.2418803 40.6677889,41.2336752 40.8780102,41.2121368 C40.8914467,41.1688889 40.9047131,41.125812 40.9179795,41.0823932 C40.8031742,41.0678632 40.6830963,41.0519658 40.5570656,41.0347009"></path>
                    <path id="Fill-34" fill="#F2469B" d="M40.9596496,41.0878632 C40.9963873,41.1225641 41.0326148,41.1569231 41.0695225,41.1917949 C41.1800758,41.1794872 41.307127,41.1647863 41.4505061,41.1470085 C41.3020246,41.1300855 41.1377254,41.1104274 40.9596496,41.0878632"></path>
                    <path id="Fill-35" fill="#EE4C94" d="M40.5572357,41.0328205 C40.5560451,41.0340171 40.5567254,41.0333333 40.5557049,41.034359 C40.5562152,41.0345299 40.5567254,41.0345299 40.5570656,41.0347009 L40.5572357,41.0328205"></path>
                    <path id="Fill-36" fill="#EE4C94" d="M42.4252459,41.0121368 C42.3459877,41.0241026 42.2689406,41.0355556 42.1939344,41.0464957 C42.1401885,41.1042735 42.0891639,41.1584615 42.0417111,41.208547 C42.3036373,41.2329915 42.4437848,41.2418803 42.4437848,41.2418803 C42.4395328,41.1670085 42.4351107,41.0923077 42.4303484,41.0179487 C42.4283074,41.0155556 42.4272869,41.014359 42.4252459,41.0121368"></path>
                    <path id="Fill-37" fill="#F2469B" d="M41.840334,41.0962393 C41.7000164,41.1152137 41.5695635,41.1321368 41.4505061,41.1470085 C41.6051107,41.1644444 41.742877,41.1791453 41.8634652,41.1912821 C41.8558115,41.1603419 41.8476475,41.1271795 41.840334,41.0962393"></path>
                    <path id="Fill-38" fill="#F24798" d="M42.1939344,41.0464957 C42.0694344,41.0646154 41.9519078,41.0811966 41.840334,41.0962393 C41.8476475,41.1271795 41.8558115,41.1603419 41.8634652,41.1912821 C41.9280963,41.1976068 41.9874549,41.2034188 42.0417111,41.208547 C42.0891639,41.1584615 42.1401885,41.1042735 42.1939344,41.0464957"></path>
                    <path id="Fill-39" fill="#F2469B" d="M40.9259734,41.0557265 C40.923082,41.0652991 40.9207008,41.0729915 40.9179795,41.0823932 C40.9319262,41.0842735 40.945873,41.0859829 40.9596496,41.0878632 C40.9492746,41.0779487 40.9363484,41.065641 40.9259734,41.0557265"></path>
                    <path id="Fill-40" fill="#F24798" d="M40.7208545,40.8591453 C40.6664283,40.9174359 40.6116619,40.9753846 40.5572357,41.0328205 L40.5570656,41.0347009 C40.6830963,41.0519658 40.8031742,41.0678632 40.9179795,41.0823932 C40.9207008,41.0729915 40.923082,41.0652991 40.9259734,41.0557265 C40.85675,40.9899145 40.7890574,40.9251282 40.7208545,40.8591453"></path>
                    <path id="Fill-41" fill="#F24798" d="M42.327959,40.9013675 C42.2813566,40.9523077 42.2369652,41.0005128 42.1939344,41.0464957 C42.2689406,41.0355556 42.3459877,41.0241026 42.4252459,41.0121368 C42.3932705,40.9758974 42.3599344,40.9379487 42.327959,40.9013675"></path>
                    <path d="M41.5346967,39.9596581 C41.3896168,40.1254701 41.242666,40.2904274 41.0963955,40.4519658 C41.0428197,40.6553846 40.9860123,40.8565812 40.9259734,41.0557265 C40.9363484,41.065641 40.9492746,41.0779487 40.9596496,41.0878632 C41.1377254,41.1104274 41.3020246,41.1300855 41.4505061,41.1470085 C41.5695635,41.1321368 41.7000164,41.1152137 41.840334,41.0962393 C41.7595451,40.7613675 41.6889611,40.4220513 41.6280717,40.074188 C41.5966066,40.0358974 41.5659918,39.9981197 41.5346967,39.9596581" id="Fill-42" fill="#F3459B"></path>
                    <path d="M41.6280717,40.074188 C41.6889611,40.4220513 41.7595451,40.7613675 41.840334,41.0962393 C41.9519078,41.0811966 42.0694344,41.0646154 42.1939344,41.0464957 C42.2369652,41.0005128 42.2813566,40.9523077 42.327959,40.9013675 C42.0923955,40.6323077 41.859043,40.3565812 41.6280717,40.074188" id="Fill-43" fill="#F3449A"></path>
                    <path id="Fill-44" fill="#F3449A" d="M41.0963955,40.4519658 C40.9717254,40.5892308 40.846375,40.7251282 40.7208545,40.8591453 C40.7890574,40.9251282 40.85675,40.9899145 40.9259734,41.0557265 C40.9860123,40.8565812 41.0428197,40.6553846 41.0963955,40.4519658"></path>
                    <path d="M73.1752152,39.5396581 C69.7058832,41.5815385 66.1079693,42.7976068 62.6166967,43.4567521 C65.6575922,45.3820513 68.3562828,47.8712821 70.1455451,51.0894017 C77.3940984,50.4700855 82.7140922,48.2784615 82.7140922,48.2784615 C79.8094324,44.4044444 76.5562746,41.5747009 73.1752152,39.5396581" id="Fill-45" fill="#F98EC4"></path>
                    <path d="M62.6166967,43.4567521 C60.1185328,43.9283761 57.6747951,44.1148718 55.3722254,44.1148718 C52.5794795,44.1148718 49.9937234,43.8405128 47.7697316,43.4675214 C48.1333668,44.368547 48.4174037,45.3288889 48.5748996,46.3357265 C54.379457,50.0931624 60.7638238,51.2507692 66.4244918,51.2507692 C67.7065697,51.2507692 68.9527602,51.1912821 70.1455451,51.0894017 C68.3562828,47.8712821 65.6575922,45.3820513 62.6166967,43.4567521" id="Fill-46" fill="#DC8586"></path>
                    <path d="M44.0144918,42.6842735 C45.475666,44.1117949 47.002832,45.3182906 48.5748996,46.3357265 C48.4174037,45.3288889 48.1333668,44.368547 47.7697316,43.4675214 C46.3594119,43.2311111 45.0948525,42.9550427 44.0144918,42.6842735" id="Fill-47" fill="#CF816E"></path>
                    <path d="M44.4553443,36.0668376 C43.8438996,36.2102564 43.2810984,36.3548718 42.774084,36.4940171 C42.9584529,36.6632479 43.176668,36.8704274 43.4185246,37.1124786 C43.7600492,36.751453 44.1059959,36.402735 44.4553443,36.0668376" id="Fill-48" fill="#F64FA2"></path>
                    <path d="M42.774084,36.4940171 C42.4475266,36.5834188 42.1437602,36.6707692 41.8644857,36.7540171 C41.8840451,36.8483761 41.9030943,36.9420513 41.9218033,37.037094 C42.2606066,37.0668376 42.7446598,37.114359 43.3484508,37.1870085 C43.371752,37.1620513 43.3952234,37.137265 43.4185246,37.1124786 C43.176668,36.8704274 42.9584529,36.6632479 42.774084,36.4940171" id="Fill-49" fill="#F04D98"></path>
                    <path d="M41.9218033,37.037094 C41.9384713,37.1225641 41.9549693,37.2087179 41.971127,37.2947009 C42.3847664,37.4348718 42.7091127,37.5528205 42.9336209,37.637094 C43.0717275,37.4844444 43.2089836,37.3353846 43.3484508,37.1870085 C42.7446598,37.114359 42.2606066,37.0668376 41.9218033,37.037094" id="Fill-50" fill="#EE4C94"></path>
                    <path id="Fill-51" fill="#F2469B" d="M41.8644857,36.7540171 C41.5714344,36.8413675 41.3050861,36.9242735 41.0674816,37.0008547 C41.0970758,37.0099145 41.1263299,37.0191453 41.1554139,37.0283761 C41.2338217,37.0223932 41.3035553,37.017265 41.3646148,37.0129915 L41.3646148,36.994359 C41.3646148,36.994359 41.4125779,36.997094 41.5049324,37.0037607 C41.610043,36.9969231 41.6649795,36.994359 41.6649795,36.994359 C41.6644693,37.0015385 41.663959,37.0083761 41.6632787,37.0155556 C41.7367541,37.0213675 41.8229857,37.028547 41.9218033,37.037094 C41.9030943,36.9420513 41.8840451,36.8483761 41.8644857,36.7540171"></path>
                    <path id="Fill-52" fill="#F24798"></path>
                    <path id="Fill-53" fill="#F24798"></path>
                    <path id="Fill-54" fill="#F14798" d="M41.5049324,37.0037607 C41.4653033,37.0061538 41.4183607,37.0092308 41.3646148,37.0129915 C41.3646148,37.04 41.3647848,37.0680342 41.3649549,37.0948718 C41.4632623,37.1264957 41.5585082,37.1574359 41.6500123,37.1875214 C41.6546045,37.1307692 41.6590266,37.0726496 41.6632787,37.0155556 C41.6011988,37.0107692 41.5481332,37.0068376 41.5049324,37.0037607"></path>
                    <path d="M58.986127,34.9894017 C56.4505451,36.6186325 53.8079816,37.8304274 51.3412828,38.7295726 C54.9516127,39.6950427 59.0228648,41.1811966 62.6166967,43.4567521 C66.1079693,42.7976068 69.7058832,41.5815385 73.1752152,39.5396581 C68.4972807,36.7239316 63.5754488,35.4287179 58.986127,34.9894017" id="Fill-55" fill="#F761AC"></path>
                    <path d="M51.3412828,38.7295726 C49.432793,39.4254701 47.6292439,39.934188 46.0636393,40.3037607 C46.6985553,41.2422222 47.3004754,42.3052991 47.7697316,43.4675214 C49.9937234,43.8405128 52.5794795,44.1148718 55.3722254,44.1148718 C57.6747951,44.1148718 60.1185328,43.9283761 62.6166967,43.4567521 C59.0228648,41.1811966 54.9516127,39.6950427 51.3412828,38.7295726" id="Fill-56" fill="#EB5E93"></path>
                    <path d="M46.0636393,40.3037607 C44.8361578,40.5935043 43.7549467,40.7979487 42.8822561,40.9401709 C42.933791,41.0078632 42.983625,41.0738462 43.0348197,41.1422222 C43.0348197,41.1422222 42.9087889,41.194188 42.6686332,41.2844444 C43.1098258,41.7726496 43.5591824,42.2396581 44.0144918,42.6842735 C45.0948525,42.9550427 46.3594119,43.2311111 47.7697316,43.4675214 C47.3004754,42.3052991 46.6985553,41.2422222 46.0636393,40.3037607" id="Fill-57" fill="#E65C89"></path>
                    <path d="M55.1082582,34.8071795 C51.7935307,34.8071795 48.7706639,35.1936752 46.297502,35.6728205 C45.9005307,36.3020513 45.5042398,36.8892308 45.1198545,37.4300855 C46.8232254,37.6911111 48.9837766,38.0993162 51.3412828,38.7295726 C53.8079816,37.8304274 56.4505451,36.6186325 58.986127,34.9894017 C57.6613586,34.8625641 56.3634631,34.8071795 55.1082582,34.8071795" id="Fill-58" fill="#F64FA2"></path>
                    <path d="M45.1198545,37.4300855 C44.9096332,37.725641 44.7029836,38.0078632 44.5014365,38.2755556 C45.0079406,38.8589744 45.5467602,39.54 46.0636393,40.3037607 C47.6292439,39.934188 49.432793,39.4254701 51.3412828,38.7295726 C48.9837766,38.0993162 46.8232254,37.6911111 45.1198545,37.4300855" id="Fill-59" fill="#F04D98"></path>
                    <path d="M44.5014365,38.2755556 C43.7751865,39.2408547 43.1173094,40.0205128 42.6114857,40.5878632 C42.7011189,40.7030769 42.7933033,40.8230769 42.8822561,40.9401709 C43.7549467,40.7979487 44.8361578,40.5935043 46.0636393,40.3037607 C45.5467602,39.54 45.0079406,38.8589744 44.5014365,38.2755556" id="Fill-60" fill="#EE4C94"></path>
                    <path d="M46.297502,35.6728205 C45.6433668,35.7994872 45.0280102,35.9326496 44.4553443,36.0668376 C44.1059959,36.402735 43.7600492,36.751453 43.4185246,37.1124786 C43.4494795,37.1435897 43.4809447,37.1750427 43.5125799,37.2071795 C43.9847275,37.2654701 44.5247377,37.3388034 45.1198545,37.4300855 C45.5042398,36.8892308 45.9005307,36.3020513 46.297502,35.6728205" id="Fill-61" fill="#F4479E"></path>
                    <path id="Fill-62" fill="#F2469B" d="M43.4185246,37.1124786 C43.3952234,37.137265 43.371752,37.1620513 43.3484508,37.1870085 C43.4023668,37.1935043 43.456623,37.2001709 43.5125799,37.2071795 C43.4809447,37.1750427 43.4494795,37.1435897 43.4185246,37.1124786"></path>
                    <path d="M43.5125799,37.2071795 C43.8148156,37.5133333 44.1502172,37.8707692 44.5014365,38.2755556 C44.7029836,38.0078632 44.9096332,37.725641 45.1198545,37.4300855 C44.5247377,37.3388034 43.9847275,37.2654701 43.5125799,37.2071795" id="Fill-63" fill="#F2469B"></path>
                    <path d="M43.3484508,37.1870085 C43.2089836,37.3353846 43.0717275,37.4844444 42.9336209,37.637094 C43.1734365,37.7273504 43.2994672,37.7791453 43.2994672,37.7791453 C42.9557316,38.2376068 42.606043,38.682735 42.2529529,39.1124786 C42.3007459,39.4984615 42.3419057,39.8909402 42.3759221,40.2887179 C42.4551803,40.3882051 42.5327377,40.4868376 42.6114857,40.5878632 C43.1173094,40.0205128 43.7751865,39.2408547 44.5014365,38.2755556 C44.1502172,37.8707692 43.8148156,37.5133333 43.5125799,37.2071795 C43.456623,37.2001709 43.4023668,37.1935043 43.3484508,37.1870085" id="Fill-64" fill="#F24798"></path>
                    <path d="M42.2529529,39.1124786 C42.1122951,39.2835897 41.9719775,39.4511111 41.829959,39.6176068 C42.0127971,39.837094 42.1956352,40.0617094 42.3759221,40.2887179 C42.3419057,39.8909402 42.3007459,39.4984615 42.2529529,39.1124786" id="Fill-65" fill="#F3449A"></path>
                    <path id="Fill-66" fill="#EE4C94" d="M42.8822561,40.9401709 C42.7244201,40.9659829 42.5738975,40.9895726 42.4300082,41.0112821 C42.4300082,41.0129915 42.4303484,41.0162393 42.4303484,41.0179487 C42.5094365,41.1073504 42.5890348,41.1964103 42.6686332,41.2844444 C42.9087889,41.194188 43.0348197,41.1422222 43.0348197,41.1422222 C42.983625,41.0738462 42.933791,41.0078632 42.8822561,40.9401709"></path>
                    <path id="Fill-67" fill="#F24798" d="M42.6114857,40.5878632 C42.543623,40.6641026 42.4783115,40.7364103 42.4162316,40.8047863 C42.4209939,40.874359 42.4255861,40.9415385 42.4300082,41.0112821 C42.5738975,40.9895726 42.7244201,40.9659829 42.8822561,40.9401709 C42.7933033,40.8230769 42.7011189,40.7030769 42.6114857,40.5878632"></path>
                    <path id="Fill-68" fill="#F3449A" d="M42.3759221,40.2887179 C42.3907193,40.4593162 42.4041557,40.6319658 42.4162316,40.8047863 C42.4783115,40.7364103 42.543623,40.6641026 42.6114857,40.5878632 C42.5327377,40.4868376 42.4551803,40.3882051 42.3759221,40.2887179"></path>
                    <path id="Fill-69" fill="#F24798" d="M42.4300082,41.0112821 C42.4286475,41.0116239 42.4267766,41.0117949 42.4252459,41.0121368 C42.4272869,41.014359 42.4283074,41.0155556 42.4303484,41.0179487 C42.4303484,41.0162393 42.4300082,41.0129915 42.4300082,41.0112821"></path>
                    <path id="Fill-70" fill="#F3449A" d="M42.4162316,40.8047863 C42.386127,40.8379487 42.3567029,40.8702564 42.327959,40.9013675 C42.3599344,40.9379487 42.3932705,40.9758974 42.4252459,41.0121368 C42.4267766,41.0117949 42.4286475,41.0116239 42.4300082,41.0112821 C42.4255861,40.9415385 42.4209939,40.874359 42.4162316,40.8047863"></path>
                    <path id="Fill-71" fill="#F4439C" d="M41.5966066,39.8887179 C41.5760266,39.9123077 41.5552766,39.9360684 41.5346967,39.9596581 C41.5659918,39.9981197 41.5966066,40.0358974 41.6280717,40.074188 C41.6173566,40.0133333 41.6066414,39.9499145 41.5966066,39.8887179"></path>
                    <path d="M41.829959,39.6176068 C41.7522316,39.7087179 41.6746742,39.7988034 41.5966066,39.8887179 C41.6066414,39.9499145 41.6173566,40.0133333 41.6280717,40.074188 C41.859043,40.3565812 42.0923955,40.6323077 42.327959,40.9013675 C42.3567029,40.8702564 42.386127,40.8379487 42.4162316,40.8047863 C42.4041557,40.6319658 42.3907193,40.4593162 42.3759221,40.2887179 C42.1956352,40.0617094 42.0127971,39.837094 41.829959,39.6176068" id="Fill-72" fill="#F4439B"></path>
                    <path d="M9.43988934,39.5432479 C6.12805328,41.6331624 2.99701434,44.5567521 0.285567623,48.58 C0.285567623,48.58 5.34414549,50.5976068 12.3882602,51.125641 C14.004209,47.8902564 16.626873,45.3916239 19.6573934,43.4608547 C16.2363648,42.8015385 12.7520656,41.5837607 9.43988934,39.5432479" id="Fill-73" fill="#F98EC4"></path>
                    <path d="M35.3034037,43.2878632 C32.824459,43.7560684 29.8971783,44.1147009 26.7453893,44.1147009 C24.4710533,44.1147009 22.0805512,43.9280342 19.6573934,43.4608547 C16.626873,45.3916239 14.004209,47.8902564 12.3882602,51.125641 C13.4487213,51.2051282 14.5530635,51.2507692 15.693123,51.2507692 C21.5184303,51.2507692 28.2475533,50.0558974 34.4798668,46.0717949 C34.6149119,45.1618803 34.8798996,44.2305983 35.3034037,43.2878632" id="Fill-74" fill="#DC8586"></path>
                    <path d="M39.1928381,42.3916239 C38.0854344,42.694359 36.773252,43.0102564 35.3034037,43.2878632 C34.8798996,44.2305983 34.6149119,45.1618803 34.4798668,46.0717949 C36.0927541,45.0406838 37.6704344,43.8242735 39.1928381,42.3916239" id="Fill-75" fill="#CF816E"></path>
                    <path d="M38.7184795,36.334188 C39.0132316,36.6066667 39.3056025,36.8870085 39.5959324,37.1755556 C39.9680717,37.1345299 40.2971803,37.1020513 40.5767951,37.0767521 C40.6468689,37.022906 40.7181332,36.9687179 40.7895676,36.9148718 C40.190709,36.7319658 39.4952439,36.5333333 38.7184795,36.334188" id="Fill-76" fill="#F64FA2"></path>
                    <path id="Fill-77" fill="#F04D98" d="M40.7895676,36.9148718 C40.7181332,36.9687179 40.6468689,37.022906 40.5767951,37.0767521 C40.6749324,37.0678632 40.767457,37.0598291 40.8531783,37.0526496 C40.858791,37.0145299 40.8642336,36.9774359 40.8698463,36.9394872 C40.8429734,36.9311111 40.8169508,36.9232479 40.7895676,36.9148718"></path>
                    <path id="Fill-78" fill="#F04D98" d="M40.5767951,37.0767521 C40.2971803,37.1020513 39.9680717,37.1345299 39.5959324,37.1755556 C39.6779119,37.257094 39.761252,37.3408547 39.8427213,37.4235897 C39.9565061,37.3806838 40.136623,37.3145299 40.3786496,37.2305983 C40.4446414,37.1789744 40.5096127,37.128547 40.5767951,37.0767521"></path>
                    <path id="Fill-79" fill="#EE4C94" d="M40.8531783,37.0526496 C40.767457,37.0598291 40.6749324,37.0678632 40.5767951,37.0767521 C40.5096127,37.128547 40.4446414,37.1789744 40.3786496,37.2305983 C40.5162459,37.182906 40.674252,37.1294017 40.850457,37.071453 C40.8513074,37.065641 40.8523279,37.0581197 40.8531783,37.0526496"></path>
                    <path id="Fill-80" fill="#F2469B" d="M40.8698463,36.9394872 C40.8642336,36.9774359 40.858791,37.0145299 40.8531783,37.0526496 C40.8783504,37.0504274 40.902502,37.0483761 40.9264836,37.0464957 C40.9724057,37.031453 41.0191783,37.0162393 41.0674816,37.0008547 C41.0030205,36.9805128 40.9370287,36.9601709 40.8698463,36.9394872"></path>
                    <path id="Fill-81" fill="#F24798" d="M40.9264836,37.0464957 C40.902502,37.0483761 40.8783504,37.0504274 40.8531783,37.0526496 C40.8523279,37.0581197 40.8513074,37.065641 40.850457,37.071453 C40.8756291,37.0630769 40.9006311,37.0548718 40.9264836,37.0464957"></path>
                    <path d="M23.2571783,34.982906 C18.7151393,35.4181197 13.9135553,36.7198291 9.43988934,39.5432479 C12.7520656,41.5837607 16.2363648,42.8015385 19.6573934,43.4608547 C23.2277541,41.1863248 27.3627869,39.7018803 31.0777172,38.7377778 C28.5303996,37.8379487 25.8216742,36.6217094 23.2571783,34.982906" id="Fill-82" fill="#F761AC"></path>
                    <path d="M31.0777172,38.7377778 C27.3627869,39.7018803 23.2277541,41.1863248 19.6573934,43.4608547 C22.0805512,43.9280342 24.4710533,44.1147009 26.7453893,44.1147009 C29.8971783,44.1147009 32.824459,43.7560684 35.3034037,43.2878632 C35.7280984,42.3430769 36.3126701,41.3851282 37.0853525,40.4235897 C35.3287459,40.0488889 33.2619098,39.5092308 31.0777172,38.7377778" id="Fill-83" fill="#EB5E93"></path>
                    <path d="M37.0853525,40.4235897 C36.3126701,41.3851282 35.7280984,42.3430769 35.3034037,43.2878632 C36.773252,43.0102564 38.0854344,42.694359 39.1928381,42.3916239 C39.4994959,42.1030769 39.8049631,41.8047863 40.1066885,41.4984615 C40.0131434,41.4632479 39.9651803,41.4441026 39.9651803,41.4441026 C40.0670594,41.2929915 40.1697889,41.142735 40.2728586,40.9947009 C39.4091824,40.8704274 38.3247398,40.6880342 37.0853525,40.4235897" id="Fill-84" fill="#E65C89"></path>
                    <path d="M27.0100369,34.8068376 C25.7888484,34.8068376 24.5324529,34.8608547 23.2571783,34.982906 C25.8216742,36.6217094 28.5303996,37.8379487 31.0777172,38.7377778 C33.517543,38.1046154 35.7764016,37.6957265 37.5753586,37.434359 C37.1328053,36.8842735 36.7184857,36.3329915 36.3335902,35.7842735 C33.7012316,35.2447863 30.4922951,34.8068376 27.0100369,34.8068376" id="Fill-85" fill="#F64FA2"></path>
                    <path d="M37.5753586,37.434359 C35.7764016,37.6957265 33.517543,38.1046154 31.0777172,38.7377778 C33.2619098,39.5092308 35.3287459,40.0488889 37.0853525,40.4235897 C37.5425328,39.8547009 38.0643443,39.2859829 38.6596311,38.7157265 C38.2798381,38.2882051 37.9190943,37.8615385 37.5753586,37.434359" id="Fill-86" fill="#F04D98"></path>
                    <path d="M38.6596311,38.7157265 C38.0643443,39.2859829 37.5425328,39.8547009 37.0853525,40.4235897 C38.3247398,40.6880342 39.4091824,40.8704274 40.2728586,40.9947009 C40.3519467,40.8811966 40.4318852,40.7675214 40.5116537,40.6558974 C39.8512254,40.0100855 39.2336578,39.3620513 38.6596311,38.7157265" id="Fill-87" fill="#EE4C94"></path>
                    <path d="M36.3335902,35.7842735 C36.7184857,36.3329915 37.1328053,36.8842735 37.5753586,37.434359 C38.3386865,37.3235897 39.0195246,37.2391453 39.5959324,37.1755556 C39.3056025,36.8870085 39.0132316,36.6066667 38.7184795,36.334188 C37.9918893,36.1476923 37.1940348,35.9606838 36.3335902,35.7842735" id="Fill-88" fill="#F4479E"></path>
                    <path d="M39.5959324,37.1755556 C39.0195246,37.2391453 38.3386865,37.3235897 37.5753586,37.434359 C37.9190943,37.8615385 38.2798381,38.2882051 38.6596311,38.7157265 C39.0227561,38.3678632 39.4136045,38.0191453 39.8318361,37.6717949 C39.7876148,37.6070085 39.744584,37.5435897 39.7005328,37.4781197 C39.7005328,37.4781197 39.7488361,37.4588034 39.8427213,37.4235897 C39.761252,37.3408547 39.6779119,37.257094 39.5959324,37.1755556" id="Fill-89" fill="#F2469B"></path>
                    <path d="M39.8318361,37.6717949 C39.4136045,38.0191453 39.0227561,38.3678632 38.6596311,38.7157265 C39.2336578,39.3620513 39.8512254,40.0100855 40.5116537,40.6558974 C40.5293422,40.6309402 40.5460102,40.6076923 40.5638689,40.582906 C40.5771352,39.9837607 40.6072398,39.3977778 40.653502,38.8246154 C40.3762684,38.451453 40.101416,38.0659829 39.8318361,37.6717949" id="Fill-90" fill="#F24798"></path>
                    <path d="M40.653502,38.8246154 C40.6072398,39.3977778 40.5771352,39.9837607 40.5638689,40.582906 C40.796541,40.2582906 41.033125,39.9401709 41.2714098,39.6305983 C41.0630594,39.3671795 40.8577705,39.0993162 40.653502,38.8246154" id="Fill-91" fill="#F3449A"></path>
                    <path d="M40.2728586,40.9947009 C40.1697889,41.142735 40.0670594,41.2929915 39.9651803,41.4441026 C39.9651803,41.4441026 40.0131434,41.4632479 40.1066885,41.4984615 C40.257041,41.3459829 40.406543,41.191453 40.5557049,41.034359 C40.4643709,41.0218803 40.3698053,41.008547 40.2728586,40.9947009" id="Fill-92" fill="#EE4C94"></path>
                    <path id="Fill-93" fill="#F24798" d="M40.5116537,40.6558974 C40.4318852,40.7675214 40.3519467,40.8811966 40.2728586,40.9947009 C40.3698053,41.008547 40.4643709,41.0218803 40.5557049,41.034359 C40.5567254,41.0333333 40.5560451,41.0340171 40.5572357,41.0328205 C40.557916,40.9217094 40.5594467,40.8148718 40.5613176,40.7046154 C40.5448197,40.688547 40.5281516,40.6721368 40.5116537,40.6558974"></path>
                    <path id="Fill-94" fill="#F3449A" d="M40.5638689,40.582906 C40.5460102,40.6076923 40.5293422,40.6309402 40.5116537,40.6558974 C40.5281516,40.6721368 40.5448197,40.688547 40.5613176,40.7046154 C40.562168,40.6642735 40.5630184,40.6230769 40.5638689,40.582906"></path>
                    <path id="Fill-95" fill="#F3449A" d="M40.5613176,40.7046154 C40.5594467,40.8148718 40.557916,40.9217094 40.5572357,41.0328205 C40.6116619,40.9753846 40.6664283,40.9174359 40.7208545,40.8591453 C40.6667684,40.8071795 40.6148934,40.7567521 40.5613176,40.7046154"></path>
                    <path id="Fill-96" fill="#F4439C" d="M41.2877377,39.6512821 C41.2295697,39.9210256 41.1652787,40.1897436 41.0963955,40.4519658 C41.242666,40.2904274 41.3896168,40.1254701 41.5346967,39.9596581 C41.4516967,39.857265 41.3700574,39.7553846 41.2877377,39.6512821"></path>
                    <path d="M41.2714098,39.6305983 C41.033125,39.9401709 40.796541,40.2582906 40.5638689,40.582906 C40.5630184,40.6230769 40.562168,40.6642735 40.5613176,40.7046154 C40.6148934,40.7567521 40.6667684,40.8071795 40.7208545,40.8591453 C40.846375,40.7251282 40.9717254,40.5892308 41.0963955,40.4519658 C41.1652787,40.1897436 41.2295697,39.9210256 41.2877377,39.6512821 C41.2828053,39.6452991 41.2761721,39.6367521 41.2714098,39.6305983" id="Fill-97" fill="#F4439B"></path>
                    <path d="M41.971127,37.2947009 C42.045623,37.6933333 42.1128053,38.0988034 42.172334,38.5107692 C42.4228648,38.2126496 42.6778176,37.9201709 42.9336209,37.637094 C42.7091127,37.5528205 42.3847664,37.4348718 41.971127,37.2947009" id="Fill-98" fill="#F24798"></path>
                    <path id="Fill-99" fill="#F2469B" d="M40.3786496,37.2305983 C40.136623,37.3145299 39.9565061,37.3806838 39.8427213,37.4235897 C39.8860922,37.4675214 39.929293,37.511453 39.9724939,37.5558974 C40.1051578,37.4473504 40.240543,37.3391453 40.3786496,37.2305983"></path>
                    <path d="M40.850457,37.071453 C40.674252,37.1294017 40.5162459,37.182906 40.3786496,37.2305983 C40.240543,37.3391453 40.1051578,37.4473504 39.9724939,37.5558974 C40.2165615,37.8061538 40.4579078,38.0613675 40.6985738,38.3234188 C40.7404139,37.8982906 40.7910984,37.4823932 40.850457,37.071453" id="Fill-100" fill="#F24798"></path>
                    <path d="M41.4525471,38.785641 C41.4346885,38.8936752 41.4159795,39.0001709 41.3964201,39.1068376 C41.4312869,39.1471795 41.4671742,39.1888889 41.5018709,39.2295726 C41.4836721,39.0823932 41.4673443,38.9352137 41.4525471,38.785641 M41.0674816,37.0008547 C41.0191783,37.0162393 40.9724057,37.031453 40.9264836,37.0464957 C41.0091434,37.0396581 41.0858504,37.0336752 41.1554139,37.0283761 C41.1263299,37.0191453 41.0970758,37.0099145 41.0674816,37.0008547" id="Fill-101" fill="#F3459B"></path>
                    <path d="M41.6500123,37.1875214 C41.6051107,37.7336752 41.5387787,38.2668376 41.4525471,38.785641 C41.4673443,38.9352137 41.4836721,39.0823932 41.5018709,39.2295726 C41.5161578,39.2461538 41.5307848,39.2632479 41.5450717,39.28 C41.7524016,39.0177778 41.9610922,38.7620513 42.172334,38.5107692 C42.1128053,38.0988034 42.045623,37.6933333 41.971127,37.2947009 C41.869418,37.2603419 41.7622664,37.2244444 41.6500123,37.1875214" id="Fill-102" fill="#F3449A"></path>
                    <path d="M41.1554139,37.0283761 C41.0858504,37.0336752 41.0091434,37.0396581 40.9264836,37.0464957 C40.9006311,37.0548718 40.8756291,37.0630769 40.850457,37.071453 C40.7910984,37.4823932 40.7404139,37.8982906 40.6985738,38.3234188 C40.9327766,38.5788034 41.1654488,38.84 41.3964201,39.1068376 C41.4159795,39.0001709 41.4346885,38.8936752 41.4525471,38.785641 C41.3986311,38.2369231 41.3688668,37.674359 41.3649549,37.0948718 C41.296752,37.0729915 41.2268484,37.0509402 41.1554139,37.0283761" id="Fill-103" fill="#F3449A"></path>
                    <path id="Fill-104" fill="#F3459A" d="M41.3649549,37.0948718 C41.3688668,37.674359 41.3986311,38.2369231 41.4525471,38.785641 C41.5387787,38.2668376 41.6051107,37.7336752 41.6500123,37.1875214 C41.5585082,37.1574359 41.4632623,37.1264957 41.3649549,37.0948718"></path>
                    <path d="M42.9336209,37.637094 C42.6778176,37.9201709 42.4228648,38.2126496 42.172334,38.5107692 C42.2010779,38.7102564 42.2277807,38.9099145 42.2529529,39.1124786 C42.606043,38.682735 42.9557316,38.2376068 43.2994672,37.7791453 C43.2994672,37.7791453 43.1734365,37.7273504 42.9336209,37.637094" id="Fill-105" fill="#F3449A"></path>
                    <path d="M42.172334,38.5107692 C41.9610922,38.7620513 41.7524016,39.0177778 41.5450717,39.28 C41.641168,39.3924786 41.734373,39.5030769 41.829959,39.6176068 C41.9719775,39.4511111 42.1122951,39.2835897 42.2529529,39.1124786 C42.2277807,38.9099145 42.2010779,38.7102564 42.172334,38.5107692" id="Fill-106" fill="#F4439B"></path>
                    <path id="Fill-107" fill="#F3459B" d="M39.8427213,37.4235897 C39.7488361,37.4588034 39.7005328,37.4781197 39.7005328,37.4781197 C39.744584,37.5435897 39.7876148,37.6070085 39.8318361,37.6717949 C39.8782684,37.6333333 39.9253811,37.594359 39.9724939,37.5558974 C39.929293,37.511453 39.8860922,37.4675214 39.8427213,37.4235897"></path>
                    <path d="M39.9724939,37.5558974 C39.9253811,37.594359 39.8782684,37.6333333 39.8318361,37.6717949 C40.101416,38.0659829 40.3762684,38.451453 40.653502,38.8246154 C40.6671086,38.657265 40.6822459,38.4887179 40.6985738,38.3234188 C40.4579078,38.0613675 40.2165615,37.8061538 39.9724939,37.5558974" id="Fill-108" fill="#F3449A"></path>
                    <path id="Fill-109" fill="#F4439C" d="M41.3964201,39.1068376 C41.3661455,39.2704274 41.334,39.4326496 41.2999836,39.5935043 C41.371248,39.5011966 41.4416619,39.4109402 41.5134365,39.32 C41.5095246,39.2905983 41.5056127,39.2591453 41.5018709,39.2295726 C41.4671742,39.1888889 41.4312869,39.1471795 41.3964201,39.1068376"></path>
                    <path id="Fill-110" fill="#F4439B" d="M41.5018709,39.2295726 C41.5056127,39.2591453 41.5095246,39.2905983 41.5134365,39.32 C41.5239816,39.3064957 41.5343566,39.2935043 41.5450717,39.28 C41.5307848,39.2632479 41.5161578,39.2461538 41.5018709,39.2295726"></path>
                    <path d="M40.6985738,38.3234188 C40.6822459,38.4887179 40.6671086,38.657265 40.653502,38.8246154 C40.8577705,39.0993162 41.0630594,39.3671795 41.2714098,39.6305983 C41.2809344,39.6182906 41.290459,39.605812 41.2999836,39.5935043 C41.334,39.4326496 41.3661455,39.2704274 41.3964201,39.1068376 C41.1654488,38.84 40.9327766,38.5788034 40.6985738,38.3234188" id="Fill-111" fill="#F4439B"></path>
                    <path id="Fill-112" fill="#F4439C" d="M41.5134365,39.32 C41.4416619,39.4109402 41.371248,39.5011966 41.2999836,39.5935043 C41.2957316,39.6135043 41.2919898,39.6312821 41.2877377,39.6512821 C41.3700574,39.7553846 41.4516967,39.857265 41.5346967,39.9596581 C41.5552766,39.9360684 41.5760266,39.9123077 41.5966066,39.8887179 C41.5658217,39.7003419 41.5382684,39.5121368 41.5134365,39.32"></path>
                    <path id="Fill-113" fill="#F4439C" d="M41.5450717,39.28 C41.5343566,39.2935043 41.5239816,39.3064957 41.5134365,39.32 C41.5382684,39.5121368 41.5658217,39.7003419 41.5966066,39.8887179 C41.6746742,39.7988034 41.7522316,39.7087179 41.829959,39.6176068 C41.734373,39.5030769 41.641168,39.3924786 41.5450717,39.28"></path>
                    <path id="Fill-114" fill="#F4439C" d="M41.2999836,39.5935043 C41.290459,39.605812 41.2809344,39.6182906 41.2714098,39.6305983 C41.2761721,39.6367521 41.2828053,39.6452991 41.2877377,39.6512821 C41.2919898,39.6312821 41.2957316,39.6135043 41.2999836,39.5935043"></path>
                </g>
            </g>
        </g>
    </g>
</svg>