<?xml version="1.0" encoding="UTF-8" standalone="no"?>
<svg width="150px" height="50px" viewBox="0 0 150 50" version="1.1" xmlns="http://www.w3.org/2000/svg" xmlns:xlink="http://www.w3.org/1999/xlink" xmlns:sketch="http://www.bohemiancoding.com/sketch/ns">
    <!-- Generator: bin/sketchtool 1.4 (305) - http://www.bohemiancoding.com/sketch -->
    <title>logo</title>
    <desc>Created with bin/sketchtool.</desc>
    <defs></defs>
    <g id="Home" stroke="none" stroke-width="1" fill="none" fill-rule="evenodd" sketch:type="MSPage">
        <g id="01---Home---Desktop-(-&gt;1170px)-copy" sketch:type="MSArtboardGroup" transform="translate(-72.000000, -20.000000)">
            <g id="Nav" sketch:type="MSLayerGroup">
                <g id="logo" transform="translate(72.000000, 20.337838)" sketch:type="MSShapeGroup">
                    <path d="M20.6573505,39.4617653 C19.5638511,42.3666022 17.4769732,44.7594152 14.3872081,46.6385202 C11.2985617,48.5159409 7.64946185,49.4540898 3.43263728,49.4540898 L1.96885827,49.4540898 L1.03085392,49.4540898 L1.14719554,48.0258128 L2.28767907,48.0258128 L3.54786023,48.0258128 C7.48837345,48.0258128 10.8572466,47.1758083 13.6432929,45.471308 C16.4349326,43.7707377 18.3411453,41.6024965 19.3529819,38.9828659 C19.784229,37.8863938 20.0006915,36.7500602 20.0006915,35.5704966 C20.0006915,32.7919814 18.6912889,29.6182198 16.071365,26.0497731 C13.6086141,23.0764418 11.1497786,20.0991805 8.68702779,17.1202349 C6.03410313,13.75671 4.7051238,11.0141263 4.7051238,8.89585237 C4.7051238,8.46130585 4.72581919,8.1497124 4.76161661,7.95489633 C5.11287882,5.80405944 5.95523694,4.19724786 7.28030093,3.13839159 C8.84531952,1.88528067 11.1900507,1.25984807 14.3116979,1.25984807 L14.4313955,2.68587932 C11.4305647,2.68587932 9.35990747,3.15242733 8.23340732,4.09282195 C7.3748285,4.80303042 6.68908411,6.17067298 6.18400484,8.20529394 C6.10625731,8.44502439 6.06990056,8.77346072 6.06990056,9.20800724 C6.06990056,10.8962261 7.37762517,13.3249707 9.99419307,16.4948023 C14.639468,22.0961857 17.0871169,25.0706398 17.3186814,25.4220948 C19.9732841,29.2240962 21.3061788,32.6527469 21.3061788,35.7058012 C21.3061788,36.8421347 21.0913942,38.1025442 20.6573505,39.4617653" id="Fill-1" fill="#1F130E"></path>
                    <path d="M31.357424,11.1702038 C32.3938712,10.7901159 33.1042264,10.5088397 33.9493811,10.0299402 C34.1865391,9.93898861 34.4667658,9.79863121 34.562412,9.79863121 C34.7039237,9.79863121 34.7497892,9.98783299 34.7497892,10.0815917 L34.7497892,10.2208263 C34.6586176,10.4616796 34.2368792,11.686719 34.139555,11.974171 L32.447008,16.3662349 L34.6127521,16.3662349 C34.7497892,16.4167636 34.941641,16.4667308 34.941641,16.7025313 C34.941641,17.0792506 34.562412,17.0792506 34.418663,17.0792506 L32.2053754,17.0792506 L27.8733279,28.3746531 C27.5461171,29.2768705 27.2642124,30.1740351 26.9353236,31.1194826 C26.7898965,31.4995704 26.6472662,31.8813426 26.6472662,32.3007305 C26.6472662,32.396735 26.6472662,32.5359695 26.6998436,32.635904 C26.7898965,33.0625905 26.9800703,33.1569107 27.2172283,33.1569107 C28.6306671,33.1569107 32.1164412,29.2297105 33.7178166,26.9110061 C33.8106661,26.7717716 33.900719,26.6291684 34.0908928,26.6291684 C34.2368792,26.6291684 34.3280508,26.7257343 34.3280508,26.9110061 C34.3280508,27.0064491 34.3280508,27.1018922 34.27827,27.2411267 C32.5840451,29.6586427 29.099949,33.8620663 26.7898965,33.8620663 C24.7656641,33.8620663 24.4350973,31.4512875 24.4350973,30.5041557 C24.4350973,28.9007127 25.0486875,27.3410612 26.3670395,24.0291879 L29.099949,17.0792506 L26.7898965,17.0792506 C26.6041974,17.0320905 26.4140236,17.0320905 26.4140236,16.7451999 C26.4140236,16.5116452 26.6472662,16.3662349 26.9353236,16.3662349 L29.3801757,16.3662349 L31.357424,11.1702038" id="Fill-2" fill="#1F130E"></path>
                    <path d="M37.9508618,30.1291207 C37.9508618,31.1694498 38.1908164,33.0092547 39.5119651,33.0092547 C41.2973616,33.0092547 45.1646019,30.0348005 47.2805652,27.3410612 C47.7526438,26.7257343 47.7526438,26.6752057 47.8924774,26.6752057 C48.0809733,26.6752057 48.1755008,26.8211774 48.1755008,26.9110061 C48.1755008,27.3410612 42.5698481,33.9591936 38.3312095,33.9591936 C35.2716485,33.9591936 35.0372872,31.215487 35.0372872,30.1740351 C35.0372872,27.8121007 36.3511645,23.1780605 39.08743,19.9627531 C40.9214886,17.7872133 43.6549575,16.0406058 46.1467937,16.0406058 C48.3639966,16.0406058 49.0223336,17.4554084 49.0223336,18.3536958 C49.0223336,18.9235469 48.9306027,19.9627531 46.907489,21.9485297 C43.9838463,24.6933591 40.5914811,26.2030434 38.3770749,27.2411267 C38.1410357,28.2376643 37.9508618,29.0887916 37.9508618,30.1291207 L37.9508618,30.1291207 Z M47.6592349,18.1184568 C47.6592349,17.3638954 47.0490007,16.6536869 46.0108754,16.6536869 C43.6549575,16.6536869 40.2625923,20.5808871 38.5655707,26.5836926 C45.8207016,23.2240978 47.6592349,19.4428693 47.6592349,18.1184568 L47.6592349,18.1184568 Z" id="Fill-3" fill="#1F130E"></path>
                    <path d="M56.9363608,11.1702038 C57.9716894,10.7901159 58.6792478,10.5088397 59.5255213,10.0299402 C59.7654759,9.93898861 60.0445839,9.79863121 60.1413488,9.79863121 C60.2778265,9.79863121 60.3248106,9.98783299 60.3248106,10.0815917 L60.3248106,10.2208263 C60.2330797,10.4616796 59.8085447,11.686719 59.7156951,11.974171 L58.0209109,16.3662349 L60.190011,16.3662349 C60.3248106,16.4167636 60.5200185,16.4667308 60.5200185,16.7025313 C60.5200185,17.0792506 60.1413488,17.0792506 60.0003965,17.0792506 L57.7826343,17.0792506 L53.4500274,28.3746531 C53.1222572,29.2768705 52.8392339,30.1740351 52.508667,31.1194826 C52.3671553,31.4995704 52.2256436,31.8813426 52.2256436,32.3007305 C52.2256436,32.396735 52.2256436,32.5359695 52.2771024,32.635904 C52.3671553,33.0625905 52.5545325,33.1569107 52.7933684,33.1569107 C54.2056886,33.1569107 57.688666,29.2297105 59.2922787,26.9110061 C59.389603,26.7717716 59.4779778,26.6291684 59.667033,26.6291684 C59.8085447,26.6291684 59.9041909,26.7257343 59.9041909,26.9110061 C59.9041909,27.0064491 59.9041909,27.1018922 59.8560881,27.2411267 C58.1624225,29.6586427 54.6760891,33.8620663 52.3671553,33.8620663 C50.3429229,33.8620663 50.0151528,31.4512875 50.0151528,30.5041557 C50.0151528,28.9007127 50.6242683,27.3410612 51.9442983,24.0291879 L54.6760891,17.0792506 L52.3671553,17.0792506 C52.1797782,17.0320905 51.9912824,17.0320905 51.9912824,16.7451999 C51.9912824,16.5116452 52.2256436,16.3662349 52.508667,16.3662349 L54.9607905,16.3662349 L56.9363608,11.1702038" id="Fill-4" fill="#1F130E"></path>
                    <path d="M67.3964797,15.9457241 C68.3389587,15.9457241 69.5622238,16.8417658 69.5622238,18.7843123 C69.5622238,20.1047948 69.0431612,21.0513651 68.4776737,22.0905714 C66.9210452,25.0706398 65.3252632,28.0933769 63.8139407,31.0762525 C63.5767828,31.5467305 63.2037065,32.3518206 63.2037065,32.8239829 C63.2037065,33.1052591 63.4352711,33.2961452 63.6254449,33.2961452 C63.9571304,33.2961452 66.2174021,32.4927394 68.9463963,28.1933114 C68.9939397,28.0933769 69.0884673,27.9064208 69.3295405,27.9064208 C69.4212714,27.9064208 69.514121,27.9996181 69.514121,28.1422213 C69.514121,28.4717805 65.9785661,33.8171519 63.4352711,33.8171519 C62.3977052,33.8171519 61.1733214,32.7279784 61.1733214,30.9774409 C61.1733214,29.5609539 61.6923841,28.6138222 63.3910837,25.4484819 C63.8598062,24.5513174 64.5684833,23.0792489 65.0819526,22.185453 C65.4125194,21.6195319 67.630841,17.6002572 67.630841,16.9377703 C67.630841,16.5116452 67.1542878,16.5116452 67.1106596,16.5116452 C66.7828895,16.5116452 64.8951348,17.2650838 62.0704943,21.3303957 C61.9776448,21.4746831 61.787471,21.7587665 61.6012125,21.7587665 C61.5066849,21.7587665 61.4110387,21.6195319 61.4110387,21.5224046 C61.4110387,21.4746831 61.4110387,21.4303301 61.4569041,21.3303957 C62.1163598,20.199115 65.2738044,15.9457241 67.3964797,15.9457241 L67.3964797,15.9457241 Z M70.8822538,8.61626042 C70.8822538,10.1270675 69.7943477,11.2639625 68.6219821,11.2639625 C67.8646429,11.2639625 67.2521713,10.6048441 67.2521713,9.7037496 C67.2521713,8.52025596 68.1946504,7.0560475 69.3765247,7.00720312 C69.9414527,7.00720312 70.8822538,7.33620088 70.8822538,8.61626042 L70.8822538,8.61626042 Z" id="Fill-5" fill="#1F130E"></path>
                    <path d="M118.42235,33.3994483 C118.42235,35.9702345 117.445752,38.2608674 115.483606,40.2679783 C113.523137,42.268352 111.213085,43.2705039 108.557364,43.2705039 C105.957576,43.2705039 103.668778,42.2986692 101.671953,40.3448941 C99.678484,38.3933648 98.6851055,36.0791519 98.6851055,33.3994483 C98.6851055,30.6961646 99.6538733,28.371846 101.59868,26.4332295 C103.535656,24.4889987 105.855777,23.5166026 108.557364,23.5166026 C111.25895,23.5166026 113.572918,24.4889987 115.521081,26.4332295 C117.456379,28.371846 118.42235,30.6961646 118.42235,33.3994483 L118.42235,33.3994483 Z M117.658858,33.3994483 C117.658858,30.9089465 116.752736,28.7698996 114.974611,26.9772548 C113.181943,25.1851714 111.043606,24.2908141 108.557364,24.2908141 C106.069443,24.2908141 103.927191,25.1851714 102.141235,26.9772548 C100.347448,28.7698996 99.4553094,30.9089465 99.4553094,33.3994483 C99.4553094,35.8394214 100.372059,37.972854 102.202762,39.7806574 C104.037939,41.5951979 106.153902,42.4990996 108.557364,42.4990996 C111.002216,42.4990996 113.124891,41.574425 114.939373,39.7166544 C116.752736,37.8673052 117.658858,35.7585755 117.658858,33.3994483 L117.658858,33.3994483 Z" id="Fill-6" fill="#1F130E"></path>
                    <path d="M126.085796,24.0988051 C125.26693,24.267234 124.496726,24.6360933 123.784133,25.2048215 C122.941775,25.878537 122.526749,26.6072727 122.526749,27.3814841 L122.526749,42.9168032 L121.753748,42.9168032 L121.753748,23.8731104 L122.526749,23.8731104 L122.526749,25.0655869 C122.754398,24.8483137 122.9373,24.6933591 123.062032,24.5833189 C123.271783,24.4120829 123.464194,24.2739712 123.656045,24.1712296 C124.015698,24.0028007 124.356333,23.8506532 124.685221,23.717033 C125.00628,23.5946413 125.415713,23.4694425 125.892266,23.3414366 L126.085796,24.0988051" id="Fill-7" fill="#1F130E"></path>
                    <path d="M149.435783,33.3994483 C149.435783,36.1206976 148.475406,38.4467006 146.542904,40.3768956 C144.615996,42.3098978 142.289164,43.2705039 139.569119,43.2705039 C137.732263,43.2705039 135.954138,42.6692128 134.21237,41.4655077 C132.475076,40.2539425 131.226082,38.7195554 130.465946,36.847749 L130.465946,47.6749193 L129.690149,47.6749193 L129.690149,33.4073083 C129.690149,30.7057089 130.668425,28.379706 132.604283,26.4332295 C134.542377,24.4918059 136.868091,23.5166026 139.562407,23.5166026 C142.263993,23.5166026 144.584114,24.4889987 146.528921,26.4332295 C148.468694,28.371846 149.435783,30.6961646 149.435783,33.3994483 L149.435783,33.3994483 Z M148.664461,33.3994483 C148.664461,30.9089465 147.771763,28.7698996 145.982451,26.9772548 C144.188664,25.1851714 142.050328,24.2908141 139.562407,24.2908141 C137.081198,24.2908141 134.938946,25.1964 133.149634,27.0092563 C131.359763,28.822674 130.465946,30.9482465 130.465946,33.3994483 C130.465946,35.7973142 131.420171,37.9155881 133.339808,39.7497787 C135.255529,41.5856536 137.332339,42.4990996 139.562407,42.4990996 C142.050328,42.4990996 144.188664,41.6024965 145.982451,39.8126588 C147.771763,38.0216983 148.664461,35.8837743 148.664461,33.3994483 L148.664461,33.3994483 Z" id="Fill-8" fill="#1F130E"></path>
                    <path d="M99.3909859,40.3128926 L99.7590282,40.8417593 C98.5033217,41.801804 97.4584844,42.5496283 96.6368217,43.0897236 C95.8140403,43.6371174 94.9319694,44.1845113 94.0023551,44.7189923 C88.9498844,47.521649 83.9332112,48.925223 78.928284,48.925223 C76.8274227,48.925223 74.8809378,48.6647197 73.0955413,48.1588716 C71.3079075,47.6507778 69.7820423,46.9141821 68.5145898,45.9546989 C67.248256,44.9924085 66.2772509,43.8336178 65.6026932,42.4659752 C64.9314915,41.1067541 64.589738,39.6026842 64.589738,37.9588182 C64.589738,36.3351638 64.9281355,34.6929821 65.5998965,33.0165533 C66.2738949,31.3378787 67.2594427,29.7170314 68.5470313,28.1422213 C69.8307045,26.5696569 71.3912484,25.0807455 73.2062896,23.6681886 C75.4341199,21.9709869 77.882328,20.434354 80.5436427,19.05829 C83.2071947,17.6754888 85.8232032,16.5863153 88.3832783,15.7857167 C90.9472688,14.9879252 93.1393016,14.586503 94.9487495,14.586503 C95.9141612,14.586503 96.76435,14.7425805 97.5026719,15.0474368 C98.2415531,15.3595916 98.8081591,15.795261 99.2092022,16.3639892 C99.6080078,16.9349631 99.8099277,17.6002572 99.8099277,18.3744687 C99.8099277,19.4664493 99.416156,20.7229288 98.63085,22.1517672 C97.8477814,23.5749913 96.776096,24.9678982 95.4269807,26.3186979 C94.353058,27.3663255 93.2192865,28.3072816 92.0290221,29.137636 C90.8398765,29.9702361 89.6831723,30.6198102 88.5661808,31.0874811 C87.4463927,31.5579591 86.4899303,31.7948824 85.7085396,31.7948824 C85.0513213,31.7948824 84.7241105,31.5776091 84.7241105,31.1458698 C84.7241105,30.6501274 85.1290688,29.7933858 85.9518502,28.5722764 C86.771835,27.3477984 87.8491137,26.0374216 89.1803303,24.6360933 C90.5059537,23.2297121 91.9417659,21.9956898 93.4894451,20.9177449 C94.1214934,20.8262319 94.6506241,20.6808216 95.0785151,20.4747769 C95.1903821,19.9543317 95.2412815,19.6640725 95.2412815,19.604561 C95.2161115,18.6787636 94.8413572,17.9567651 94.1315614,17.4441798 C93.4335117,16.9293488 92.4625066,16.6699684 91.2146308,16.6699684 C90.0120611,16.6699684 88.7462866,16.8513101 87.4100359,17.2117479 C86.0793786,17.5727472 84.6754484,18.1156496 83.212788,18.8398939 C81.7445344,19.5658224 80.3327735,20.4079668 78.9735901,21.3786786 C77.6188813,22.352759 76.3117161,23.441371 75.0487382,24.6574276 C71.3996384,28.2298043 69.5711732,31.9464684 69.5711732,35.8085428 C69.5711732,37.9032367 70.1036598,39.7071101 71.1719892,41.2218472 C72.2375218,42.7416372 73.781845,43.9060422 75.8010434,44.7189923 C77.8157672,45.5409253 80.1493117,45.9474003 82.7888123,45.9474003 C85.2610718,45.9474003 87.5392422,45.6526498 89.6149334,45.0575344 C91.6973366,44.4657876 93.5123779,43.7555791 95.0634131,42.9336461 C96.6144483,42.1094674 98.0620066,41.2347601 99.3909859,40.3128926" id="Fill-9" fill="#1F130E"></path>
                    <path d="M20.1701699,38.4899307 C19.0766705,41.3880304 16.9869959,43.7808434 13.9000275,45.6593869 C10.8141778,47.5396147 7.16339997,48.4766408 2.94154138,48.4766408 L1.47776237,48.4766408 L0.542554694,48.4766408 L0.65777765,47.0461181 L1.79937985,47.0461181 L3.05956101,47.0461181 C6.99727755,47.0461181 10.3689473,46.2022894 13.1600277,44.4910519 C15.9466333,42.7904816 17.8511681,40.6272932 18.86692,38.0037326 C19.2987264,36.9072605 19.5123923,35.766997 19.5123923,34.5969776 C19.5123923,31.8117253 18.198515,28.6374022 15.5830657,25.0706398 C13.1242302,22.1018 10.6614794,19.1211701 8.20264391,16.1433474 C5.54580391,12.7786996 4.21626524,10.0299402 4.21626524,7.91559625 C4.21626524,7.48947117 4.23584196,7.171702 4.27499539,6.97969307 C4.62737627,4.82661047 5.46637838,3.2181146 6.7920017,2.15981976 C8.35366428,0.904463122 10.6989548,0.280714811 13.8261953,0.280714811 L13.9402996,1.70674605 C10.9405874,1.70674605 8.87552359,2.17890837 7.74622676,3.11649584 C6.88764794,3.82333573 6.20470023,5.19434687 5.69570562,7.23177497 C5.62075476,7.46701398 5.57936399,7.80162604 5.57936399,8.23055827 C5.57936399,9.91540857 6.88764794,12.341346 9.50869051,15.5167919 C14.1539655,21.1181753 16.596021,24.0948751 16.8303822,24.4457686 C19.4872222,28.2488929 20.8167609,31.6752979 20.8167609,34.729475 C20.8167609,35.8669315 20.6002983,37.1194809 20.1701699,38.4899307" id="Fill-10" fill="#F4D909"></path>
                    <path d="M30.8702434,10.1899477 C31.9083687,9.81266695 32.6148085,9.52858356 33.4649973,9.05585982 C33.6993585,8.9626625 33.9829412,8.8166908 34.0741128,8.8166908 C34.2200992,8.8166908 34.2631679,9.01038402 34.2631679,9.10751134 L34.2631679,9.24674589 C34.173115,9.47973918 33.7480206,10.7109543 33.6540524,10.9905463 L31.9553528,15.388786 L34.1227749,15.388786 C34.2631679,15.4393146 34.4533417,15.4819833 34.4533417,15.7205909 C34.4533417,16.1006787 34.0741128,16.1006787 33.9326011,16.1006787 L31.7209916,16.1006787 L27.3850287,27.4033799 C27.0578179,28.2994216 26.7775912,29.1988318 26.4442277,30.1459636 C26.302716,30.5193143 26.1617636,30.9010864 26.1617636,31.3238429 C26.1617636,31.4204088 26.1617636,31.5607662 26.2081884,31.6556479 C26.302716,32.0789658 26.4928898,32.1766545 26.7261324,32.1766545 C28.1401306,32.1766545 31.6253453,28.2488929 33.2295173,25.9369257 C33.3234856,25.794884 33.4152165,25.6505966 33.6037123,25.6505966 C33.7480206,25.6505966 33.8369549,25.7460396 33.8369549,25.9369257 C33.8369549,26.0278773 33.8369549,26.1210746 33.7927674,26.2659235 C32.1002205,28.6783866 28.6161244,32.8840559 26.302716,32.8840559 C24.2796022,32.8840559 23.9440014,30.4715928 23.9440014,29.524461 C23.9440014,27.9232637 24.5631849,26.3608051 25.8798589,23.0517389 L28.6161244,16.1006787 L26.302716,16.1006787 C26.1170168,16.0518343 25.9279617,16.0518343 25.9279617,15.7688738 C25.9279617,15.5308277 26.1617636,15.388786 26.4442277,15.388786 L28.8974698,15.388786 L30.8702434,10.1899477" id="Fill-11" fill="#FFFFFF"></path>
                    <path d="M37.466478,29.1516717 C37.466478,30.1880708 37.7013986,32.0318057 39.0208692,32.0318057 C40.8107404,32.0318057 44.673506,29.0511758 46.790588,26.3608051 C47.2654632,25.7460396 47.2654632,25.6977567 47.4041782,25.6977567 C47.594352,25.6977567 47.6872016,25.8397984 47.6872016,25.9369257 C47.6872016,26.3608051 42.0860236,32.9817446 37.8429102,32.9817446 C34.7833492,32.9817446 34.5461913,30.2380381 34.5461913,29.1988318 C34.5461913,26.8312831 35.8639839,22.2017344 38.5991308,18.9819355 C40.4303927,16.8069572 43.1666583,15.0603496 45.6612912,15.0603496 C47.8773754,15.0603496 48.5334751,16.4751523 48.5334751,17.3745625 C48.5334751,17.948905 48.4395068,18.9819355 46.4158337,20.9733264 C43.4994624,23.7142258 40.1031819,25.2267172 37.8915724,26.2659235 C37.6555331,27.2590925 37.466478,28.1152727 37.466478,29.1516717 L37.466478,29.1516717 Z M47.169817,17.1421307 C47.169817,16.3847621 46.5607014,15.6767994 45.5242542,15.6767994 C43.1666583,15.6767994 39.7782084,19.5978238 38.0800682,25.6056822 C45.3312837,22.2466488 47.169817,18.4626131 47.169817,17.1421307 L47.169817,17.1421307 Z" id="Fill-12" fill="#FFFFFF"></path>
                    <path d="M56.4508582,10.1899477 C57.4845088,9.81266695 58.196542,9.52858356 59.0400187,9.05585982 C59.2715833,8.9626625 59.5574034,8.8166908 59.6524903,8.8166908 C59.7895273,8.8166908 59.8415454,9.01038402 59.8415454,9.10751134 L59.8415454,9.24674589 C59.7442212,9.47973918 59.3230421,10.7109543 59.2257179,10.9905463 L57.5303743,15.388786 L59.6983557,15.388786 C59.8415454,15.4393146 60.0306006,15.4819833 60.0306006,15.7205909 C60.0306006,16.1006787 59.6524903,16.1006787 59.5087412,16.1006787 L57.299369,16.1006787 L52.9628468,27.4033799 C52.6345173,28.2994216 52.3509346,29.1988318 52.0220458,30.1459636 C51.8799748,30.5193143 51.7412598,30.9010864 51.7412598,31.3238429 C51.7412598,31.4204088 51.7412598,31.5607662 51.7860065,31.6556479 C51.8799748,32.0789658 52.0701486,32.1766545 52.3078659,32.1766545 C53.7140334,32.1766545 57.2003668,28.2488929 58.8039795,25.9369257 C58.8985071,25.794884 58.9941533,25.6505966 59.1787338,25.6505966 C59.3230421,25.6505966 59.418129,25.7460396 59.418129,25.9369257 C59.418129,26.0278773 59.418129,26.1210746 59.3700262,26.2659235 C57.6741233,28.6783866 54.1877899,32.8840559 51.8799748,32.8840559 C49.8546237,32.8840559 49.5296502,30.4715928 49.5296502,29.524461 C49.5296502,27.9232637 50.1376471,26.3608051 51.4582364,23.0517389 L54.1877899,16.1006787 L51.8799748,16.1006787 C51.6886823,16.0518343 51.5029832,16.0518343 51.5029832,15.7688738 C51.5029832,15.5308277 51.7412598,15.388786 52.0220458,15.388786 L54.4708133,15.388786 L56.4508582,10.1899477" id="Fill-13" fill="#FFFFFF"></path>
                    <path d="M66.9065025,14.965468 C67.8506595,14.965468 69.0683312,15.8648783 69.0683312,17.8012491 C69.0683312,19.1251001 68.5526246,20.071109 67.9865778,21.1131224 C66.4333053,24.0875765 64.8341673,27.1153665 63.3245228,30.0943121 C63.0884836,30.5692815 62.7126106,31.3687573 62.7126106,31.8409196 C62.7126106,32.1294945 62.9497685,32.3175734 63.1371457,32.3175734 C63.4688312,32.3175734 65.7291028,31.510799 68.458097,27.207441 C68.5056405,27.1153665 68.6035241,26.9272876 68.8412413,26.9272876 C68.9324129,26.9272876 69.0258218,27.023292 69.0258218,27.1653337 C69.0258218,27.4943315 65.4919449,32.8397029 62.9497685,32.8397029 C61.9116433,32.8397029 60.6883782,31.7477223 60.6883782,29.9983076 C60.6883782,28.583505 61.2040848,27.6391803 62.9039031,24.4693487 C63.3715069,23.5682541 64.0818621,22.1046071 64.6009247,21.2063197 C64.9253388,20.6409601 67.1425417,16.6228083 67.1425417,15.958637 C67.1425417,15.5308277 66.6710225,15.5308277 66.6223604,15.5308277 C66.2962683,15.5308277 64.4090729,16.2915648 61.5821951,20.3551924 C61.4871082,20.4989184 61.3014091,20.7813175 61.1101166,20.7813175 C61.013911,20.7813175 60.9244175,20.6409601 60.9244175,20.5443942 C60.9244175,20.4989184 60.9244175,20.4472669 60.9680456,20.3551924 C61.6314166,19.2244731 64.7849458,14.965468 66.9065025,14.965468 L66.9065025,14.965468 Z M70.3939545,7.63993431 C70.3939545,9.14961856 69.3099638,10.2859521 68.1342422,10.2859521 C67.3741063,10.2859521 66.7655501,9.62290373 66.7655501,8.72630063 C66.7655501,7.54224555 67.7063511,6.07747567 68.8871068,6.02863129 C69.4503568,6.02863129 70.3939545,6.36155906 70.3939545,7.63993431 L70.3939545,7.63993431 Z" id="Fill-14" fill="#FFFFFF"></path>
                    <path d="M117.939085,32.4186307 C117.939085,34.9927855 116.956334,37.2851027 114.99251,39.2877221 C113.030363,41.2931488 110.728701,42.2947392 108.070183,42.2947392 C105.472633,42.2947392 103.182157,41.3212202 101.185332,39.3657609 C99.1918628,37.4131086 98.1973656,35.0983343 98.1973656,32.4186307 C98.1973656,29.7170314 99.1678114,27.3938356 101.109262,25.4512891 C103.048476,23.5109883 105.368596,22.5402765 108.070183,22.5402765 C110.767295,22.5402765 113.0835,23.5109883 115.032223,25.4512891 C116.972555,27.3938356 117.939085,29.7170314 117.939085,32.4186307 L117.939085,32.4186307 Z M117.163847,32.4186307 C117.163847,29.9286903 116.267793,27.7907663 114.480718,26.0014901 C112.694203,24.2105296 110.553629,23.3144879 108.070183,23.3144879 C105.58394,23.3144879 103.4484,24.2105296 101.654054,26.0014901 C99.8574711,27.7907663 98.9692476,29.9286903 98.9692476,32.4186307 C98.9692476,34.8586039 99.8865565,36.9897907 101.712784,38.7998398 C103.54964,40.6132575 105.662806,41.5233349 108.070183,41.5233349 C110.517832,41.5233349 112.63771,40.5941689 114.455548,38.7375211 C116.26164,36.8892948 117.163847,34.7766351 117.163847,32.4186307 L117.163847,32.4186307 Z" id="Fill-15" fill="#FFFFFF"></path>
                    <path d="M125.598615,23.118549 C124.780308,23.2909079 124.012342,23.6558372 123.300868,24.2268111 C122.453476,24.9027723 122.035653,25.6309466 122.035653,26.4079652 L122.035653,41.9393543 L121.268245,41.9393543 L121.268245,22.8967843 L122.035653,22.8967843 L122.035653,24.0847694 C122.270014,23.8759176 122.447882,23.7142258 122.572614,23.6086771 C122.782365,23.4357567 122.98764,23.2993293 123.170543,23.1960263 C123.532432,23.0264745 123.864118,22.86759 124.191329,22.7480055 C124.520218,22.6222452 124.928532,22.4875021 125.407323,22.360619 L125.598615,23.118549" id="Fill-16" fill="#FFFFFF"></path>
                    <path d="M148.947484,32.4186307 C148.947484,35.1370729 147.984869,37.465883 146.054605,39.3988852 C144.120425,41.3262731 141.805898,42.2947392 139.080819,42.2947392 C137.252354,42.2947392 135.46472,41.6912024 133.724071,40.4824444 C131.988455,39.2793007 130.733308,37.7387378 129.977647,35.8669315 L129.977647,46.6980317 L129.205765,46.6980317 L129.205765,32.4298593 C129.205765,29.7254528 130.180126,27.4033799 132.118221,25.4552191 C134.054078,23.5109883 136.380911,22.5402765 139.076904,22.5402765 C141.776813,22.5402765 144.096933,23.5109883 146.039503,25.4512891 C147.97536,27.3938356 148.947484,29.7170314 148.947484,32.4186307 L148.947484,32.4186307 Z M148.175043,32.4186307 C148.175043,29.9286903 147.281226,27.7907663 145.492474,26.0014901 C143.701484,24.2105296 141.562028,23.3144879 139.076904,23.3144879 C136.592899,23.3144879 134.45624,24.2211968 132.666928,26.0334916 C130.871464,27.845225 129.977647,29.9747276 129.977647,32.4186307 C129.977647,34.8198652 130.936346,36.9370163 132.852627,38.7723298 C134.773942,40.6037132 136.841243,41.5233349 139.076904,41.5233349 C141.562028,41.5233349 143.701484,40.6272932 145.492474,38.8335256 C147.281226,37.0425651 148.175043,34.9046411 148.175043,32.4186307 L148.175043,32.4186307 Z" id="Fill-17" fill="#FFFFFF"></path>
                    <path d="M98.9054834,39.3320751 L99.2746443,39.8654332 C98.0150225,40.8209864 96.9757786,41.5688107 96.1524378,42.1190117 C95.3257411,42.6635985 94.4487042,43.2042552 93.5123779,43.7415433 C88.4649412,46.5408314 83.4421153,47.9432826 78.4394254,47.9432826 C76.3368861,47.9432826 74.3926386,47.6883936 72.6055641,47.1842298 C70.822405,46.6744517 69.2965398,45.9361717 68.0279686,44.9738814 C66.7610754,44.011591 65.791189,42.8499931 65.1171906,41.4896491 C64.442633,40.1287437 64.1064728,38.6207438 64.1064728,36.979685 C64.1064728,35.3616448 64.4370396,33.716656 65.1171906,32.03742 C65.7883923,30.3587454 66.7711435,28.7339681 68.0559354,27.1653337 C69.3418459,25.5944536 70.9001525,24.1016123 72.7263804,22.6868096 C74.9502953,20.9918536 77.3934694,19.4585893 80.0609368,18.0825253 C82.7166581,16.6991627 85.3321073,15.6088664 87.8949791,14.8093906 C90.4623255,14.0059848 92.6526804,13.6045626 94.4604502,13.6045626 C95.432574,13.6045626 96.2794068,13.7623243 97.0171693,14.0688649 C97.7566098,14.3832655 98.3198599,14.8206192 98.7197843,15.3859788 C99.1180306,15.9541456 99.3177131,16.6267383 99.3177131,17.3970197 C99.3177131,18.4861932 98.9278568,19.7477256 98.1470255,21.1726339 C97.3583635,22.5975423 96.2956275,23.9859578 94.9358848,25.3412489 C93.8675554,26.3911223 92.7281906,27.3287097 91.5424009,28.1568184 C90.3543739,28.9927872 89.1987884,29.6389926 88.0773222,30.111155 C86.9564154,30.577703 86.0061057,30.8118191 85.2202404,30.8118191 C84.5647001,30.8118191 84.2302179,30.5995987 84.2302179,30.1695436 C84.2302179,29.6726784 84.646363,28.8176211 85.465229,27.594266 C86.2863324,26.3658579 87.3602551,25.0599726 88.6869971,23.6558372 C90.0120611,22.2550702 91.457382,21.0137494 93.0084173,19.9386116 C93.6343128,19.8510286 94.1634435,19.7061798 94.5918939,19.5012579 C94.7004048,18.9819355 94.7568977,18.6866236 94.7568977,18.6254277 C94.7227782,17.6990689 94.353058,16.9793161 93.6454995,16.4667308 C92.9452124,15.9485313 91.965258,15.6897122 90.7263315,15.6897122 C89.5276772,15.6897122 88.260784,15.871054 86.925652,16.2326147 C85.5894013,16.5981054 84.1860305,17.1325864 82.7272855,17.8579534 C81.2618285,18.5838819 79.8439149,19.433325 78.4869688,20.3995453 C77.1289041,21.3719415 75.8206202,22.4611149 74.5649137,23.6811015 C70.9063052,27.2461796 69.0851113,30.964528 69.0851113,34.8327781 C69.0851113,36.9257877 69.6181573,38.7251697 70.6836899,40.2460825 C71.7520193,41.7641882 73.2952238,42.926909 75.3121849,43.7415433 C77.3297053,44.5606692 79.6610125,44.9671442 82.3027504,44.9671442 C84.7699759,44.9671442 87.052621,44.6701479 89.1305495,44.0812083 C91.2073594,43.4827243 93.021282,42.7803758 94.5751139,41.95339 C96.1289458,41.1303342 97.5653174,40.2556268 98.9054834,39.3320751" id="Fill-18" fill="#F4D909"></path>
                </g>
            </g>
        </g>
    </g>
</svg>